<svg width="301" height="114" viewBox="0 0 301 114" fill="none" xmlns="http://www.w3.org/2000/svg">
<path d="M156.672 35.8702H156.062L161.704 24.4312H163.229V36.7823H161.704V27.0725L162.009 27.1485L157.13 36.7823H155.605L150.726 27.1675L151.031 27.0915V36.7823H149.506V24.4312H151.031L156.672 35.8702ZM169.23 24.4312H170.754V36.7823H169.23V24.4312ZM187.418 32.659C187.291 33.5457 186.986 34.3121 186.503 34.9582C186.021 35.6042 185.404 36.1046 184.654 36.4593C183.918 36.8013 183.091 36.9723 182.176 36.9723C181.326 36.9723 180.537 36.8267 179.813 36.5353C179.089 36.2313 178.454 35.8006 177.907 35.2432C177.373 34.6858 176.954 34.0145 176.649 33.229C176.344 32.4436 176.192 31.5695 176.192 30.6068C176.192 29.6313 176.344 28.7572 176.649 27.9845C176.954 27.1991 177.373 26.5278 177.907 25.9704C178.454 25.4129 179.089 24.9887 179.813 24.6973C180.537 24.3932 181.326 24.2412 182.176 24.2412C183.105 24.2412 183.937 24.4186 184.673 24.7733C185.423 25.1153 186.04 25.6157 186.522 26.2744C187.005 26.9204 187.31 27.6931 187.437 28.5926H186.026C185.849 27.9592 185.569 27.4271 185.188 26.9965C184.82 26.5658 184.375 26.2364 183.854 26.0084C183.334 25.7803 182.774 25.6663 182.176 25.6663C181.402 25.6663 180.671 25.8564 179.985 26.2364C179.312 26.6164 178.765 27.1738 178.345 27.9085C177.926 28.6432 177.717 29.5427 177.717 30.6068C177.717 31.6709 177.926 32.5703 178.345 33.305C178.765 34.0397 179.312 34.5971 179.985 34.9772C180.671 35.3572 181.402 35.5472 182.176 35.5472C182.774 35.5472 183.327 35.4396 183.835 35.2242C184.356 34.9962 184.801 34.6668 185.169 34.2361C185.55 33.8054 185.83 33.2796 186.007 32.659H187.418ZM192.496 36.7823V24.4312H197.966C198.83 24.4312 199.567 24.5642 200.176 24.8303C200.786 25.0837 201.251 25.4699 201.568 25.9894C201.899 26.5088 202.063 27.1611 202.063 27.9465C202.063 28.4786 201.975 28.9346 201.797 29.3147C201.632 29.6947 201.396 30.0177 201.091 30.2837C200.786 30.5371 200.424 30.7334 200.005 30.8728C199.599 31.0122 199.154 31.1008 198.671 31.1388L198.614 31.0438C199.288 31.0692 199.866 31.1514 200.348 31.2908C200.831 31.4302 201.206 31.6835 201.473 32.0509C201.739 32.4183 201.873 32.9694 201.873 33.704V36.7823H200.348V33.704C200.348 33.1974 200.26 32.8046 200.081 32.5259C199.916 32.2345 199.631 32.0319 199.224 31.9179C198.83 31.7913 198.284 31.7279 197.584 31.7279H194.02V36.7823H192.496ZM194.02 30.3027H197.966C198.83 30.3027 199.471 30.0873 199.891 29.6567C200.324 29.2133 200.539 28.6432 200.539 27.9465C200.539 27.2751 200.324 26.7621 199.891 26.4074C199.471 26.04 198.83 25.8564 197.966 25.8564H194.02V30.3027ZM212.825 36.9723C211.694 36.9723 210.665 36.7127 209.737 36.1933C208.823 35.6612 208.092 34.9202 207.546 33.9701C206.998 33.02 206.726 31.8989 206.726 30.6068C206.726 29.3147 206.998 28.1936 207.546 27.2435C208.092 26.2808 208.823 25.5397 209.737 25.0203C210.665 24.5009 211.694 24.2412 212.825 24.2412C213.955 24.2412 214.979 24.5009 215.894 25.0203C216.821 25.5397 217.557 26.2808 218.104 27.2435C218.65 28.1936 218.924 29.3147 218.924 30.6068C218.924 31.8989 218.65 33.02 218.104 33.9701C217.557 34.9202 216.821 35.6612 215.894 36.1933C214.979 36.7127 213.955 36.9723 212.825 36.9723ZM212.825 35.5472C213.688 35.5472 214.464 35.3636 215.15 34.9962C215.836 34.6161 216.382 34.0587 216.789 33.324C217.195 32.5893 217.399 31.6835 217.399 30.6068C217.399 29.5301 217.195 28.6306 216.789 27.9085C216.382 27.1738 215.836 26.6164 215.15 26.2364C214.464 25.8564 213.688 25.6663 212.825 25.6663C211.973 25.6663 211.198 25.8564 210.5 26.2364C209.814 26.6164 209.266 27.1738 208.861 27.9085C208.454 28.6306 208.251 29.5301 208.251 30.6068C208.251 31.6835 208.454 32.5893 208.861 33.324C209.266 34.0587 209.814 34.6161 210.5 34.9962C211.198 35.3636 211.973 35.5472 212.825 35.5472ZM223.14 32.773H224.512C224.551 33.305 224.71 33.7801 224.989 34.1981C225.268 34.6161 225.649 34.9455 226.132 35.1862C226.628 35.4268 227.207 35.5472 227.867 35.5472C228.439 35.5472 228.915 35.4648 229.296 35.3002C229.69 35.1228 229.982 34.8822 230.173 34.5781C230.376 34.2741 230.478 33.9194 230.478 33.514C230.478 33.096 230.376 32.7603 230.173 32.5069C229.97 32.2535 229.677 32.0383 229.296 31.8609C228.915 31.6835 228.465 31.5125 227.943 31.3478C227.448 31.1958 226.945 31.0184 226.437 30.8158C225.93 30.6132 225.453 30.3661 225.008 30.0747C224.576 29.7833 224.227 29.435 223.96 29.0296C223.693 28.6116 223.559 28.1112 223.559 27.5285C223.559 26.9585 223.712 26.4264 224.017 25.9324C224.334 25.4257 224.792 25.0203 225.389 24.7163C225.999 24.3996 226.73 24.2412 227.581 24.2412C228.915 24.2412 229.913 24.6022 230.573 25.3243C231.234 26.0464 231.552 27.0028 231.526 28.1936H230.154C230.128 27.2941 229.875 26.648 229.392 26.2554C228.908 25.8627 228.279 25.6663 227.505 25.6663C226.857 25.6663 226.292 25.8184 225.808 26.1224C225.325 26.4138 225.084 26.8761 225.084 27.5095C225.084 27.7881 225.135 28.0352 225.237 28.2506C225.351 28.4532 225.529 28.6432 225.77 28.8206C226.025 28.998 226.361 29.1753 226.78 29.3527C227.212 29.5173 227.74 29.7011 228.362 29.9037C228.769 30.0303 229.182 30.1824 229.601 30.3598C230.033 30.5371 230.428 30.7588 230.783 31.0248C231.152 31.2908 231.443 31.6329 231.66 32.0509C231.888 32.4563 232.003 32.9694 232.003 33.59C232.003 34.1855 231.857 34.7428 231.564 35.2622C231.285 35.7688 230.84 36.1806 230.23 36.4973C229.633 36.8139 228.858 36.9723 227.905 36.9723C227.092 36.9723 226.392 36.8647 225.808 36.6493C225.237 36.4213 224.767 36.1299 224.398 35.7752C224.029 35.4206 223.743 35.0532 223.54 34.6731C223.35 34.2805 223.223 33.9131 223.159 33.571C223.095 33.229 223.09 32.963 223.14 32.773ZM242.39 36.9723C241.259 36.9723 240.23 36.7127 239.302 36.1933C238.388 35.6612 237.656 34.9202 237.111 33.9701C236.565 33.02 236.291 31.8989 236.291 30.6068C236.291 29.3147 236.565 28.1936 237.111 27.2435C237.656 26.2808 238.388 25.5397 239.302 25.0203C240.23 24.5009 241.259 24.2412 242.39 24.2412C243.521 24.2412 244.544 24.5009 245.459 25.0203C246.386 25.5397 247.124 26.2808 247.669 27.2435C248.215 28.1936 248.489 29.3147 248.489 30.6068C248.489 31.8989 248.215 33.02 247.669 33.9701C247.124 34.9202 246.386 35.6612 245.459 36.1933C244.544 36.7127 243.521 36.9723 242.39 36.9723ZM242.39 35.5472C243.254 35.5472 244.029 35.3636 244.715 34.9962C245.401 34.6161 245.947 34.0587 246.354 33.324C246.761 32.5893 246.964 31.6835 246.964 30.6068C246.964 29.5301 246.761 28.6306 246.354 27.9085C245.947 27.1738 245.401 26.6164 244.715 26.2364C244.029 25.8564 243.254 25.6663 242.39 25.6663C241.539 25.6663 240.763 25.8564 240.065 26.2364C239.379 26.6164 238.833 27.1738 238.426 27.9085C238.019 28.6306 237.816 29.5301 237.816 30.6068C237.816 31.6835 238.019 32.5893 238.426 33.324C238.833 34.0587 239.379 34.6161 240.065 34.9962C240.763 35.3636 241.539 35.5472 242.39 35.5472ZM262.311 24.4312V25.8564H255.068V29.9227H260.996V31.3478H255.068V36.7823H253.544V24.4312H262.311ZM266.232 24.4312H276.143V25.8564H266.232V24.4312ZM270.425 25.7043H271.95V36.7823H270.425V25.7043ZM153.023 58.0675V55.3238H160.612C161.674 55.3238 162.524 55.0158 163.161 54.3996C163.818 53.7834 164.146 52.9555 164.146 51.9158C164.146 50.8376 163.818 50 163.161 49.4031C162.524 48.787 161.674 48.4789 160.612 48.4789H153.485V64.3348H150.183V45.6197H160.379C161.365 45.6197 162.283 45.7545 163.132 46.0241C163.982 46.2743 164.725 46.6594 165.362 47.1792C166.02 47.6992 166.522 48.3538 166.869 49.1432C167.235 49.9134 167.419 50.8376 167.419 51.9158C167.419 52.9747 167.235 53.899 166.869 54.6884C166.522 55.4585 166.02 56.094 165.362 56.5946C164.725 57.0951 163.982 57.4707 163.132 57.7209C162.283 57.952 161.365 58.0675 160.379 58.0675H153.023ZM186.474 56.4501V45.6197H189.748V56.7101C189.748 57.8846 189.584 58.9147 189.256 59.8004C188.947 60.686 188.503 61.437 187.923 62.0532C187.343 62.6693 186.658 63.1795 185.866 63.5838C185.075 63.969 184.205 64.2482 183.259 64.4213C182.332 64.5947 181.347 64.6813 180.305 64.6813C179.222 64.6813 178.198 64.5947 177.233 64.4213C176.268 64.2482 175.389 63.969 174.598 63.5838C173.805 63.1795 173.119 62.6693 172.541 62.0532C171.98 61.437 171.536 60.686 171.208 59.8004C170.899 58.9147 170.745 57.8846 170.745 56.7101V45.6197H174.046V56.4501C174.046 57.9135 174.317 59.0302 174.858 59.8004C175.419 60.5513 176.171 61.0712 177.118 61.36C178.064 61.6487 179.126 61.7931 180.305 61.7931C181.444 61.7931 182.477 61.6487 183.403 61.36C184.33 61.0712 185.075 60.5513 185.634 59.8004C186.194 59.0302 186.474 57.9135 186.474 56.4501ZM193.963 64.3348V45.6197H205.058C206.448 45.6197 207.656 45.8218 208.68 46.2262C209.703 46.6112 210.494 47.2178 211.055 48.0457C211.615 48.8544 211.895 49.8942 211.895 51.1648C211.895 52.012 211.751 52.7437 211.461 53.3599C211.171 53.9567 210.765 54.4478 210.244 54.8328C209.722 55.2179 209.114 55.5163 208.418 55.7281C207.743 55.94 207.019 56.0747 206.247 56.1324L205.957 55.9303C207.193 55.9496 208.215 56.0651 209.027 56.2768C209.838 56.4694 210.456 56.8448 210.881 57.4032C211.306 57.9423 211.518 58.7415 211.518 59.8004V64.3348H208.245V59.9737C208.245 59.242 208.109 58.674 207.84 58.2697C207.588 57.8461 207.144 57.5573 206.507 57.4032C205.889 57.2299 205.001 57.1433 203.841 57.1433H197.266V64.3348H193.963ZM197.266 54.4574H205.058C206.217 54.4574 207.096 54.1686 207.694 53.5909C208.293 53.0133 208.593 52.2528 208.593 51.3092C208.593 50.4044 208.293 49.7112 207.694 49.2298C207.096 48.7292 206.217 48.4789 205.058 48.4789H197.266V54.4574ZM221.343 64.3348L213.551 45.6197H217.142L223.834 62.3419H222.763L229.426 45.6197H232.96L225.254 64.3348H221.343ZM236.058 45.6197H239.361V64.3348H236.058V45.6197ZM247.431 56.3635V61.5045H260.612V64.3348H244.13V45.6197H260.583V48.45H247.431V53.6486H258.208V56.3635H247.431ZM270.144 64.3348L262.642 45.6197H266.233L272.607 62.082H271.563L277.647 45.6197H281.384L287.468 62.082H286.425L292.798 45.6197H296.332L288.916 64.3348H285.034L279.037 47.9013H280.022L273.997 64.3348H270.144ZM159.251 73.1722C161.278 73.1722 162.977 73.4224 164.349 73.923C165.72 74.4237 166.811 75.1072 167.622 75.9736C168.433 76.8208 169.013 77.8027 169.36 78.9195C169.727 80.0362 169.91 81.2107 169.91 82.4429C169.91 83.6945 169.717 84.8883 169.332 86.0242C168.945 87.1602 168.327 88.1711 167.478 89.0569C166.647 89.9232 165.555 90.6164 164.204 91.1362C162.852 91.6369 161.2 91.8872 159.251 91.8872H150.241V73.1722H159.251ZM153.544 88.9991H159.221C160.65 88.9991 161.837 88.8161 162.785 88.4503C163.731 88.0845 164.484 87.5935 165.043 86.9774C165.604 86.342 166.001 85.6392 166.232 84.8691C166.463 84.0797 166.579 83.2709 166.579 82.4429C166.579 81.615 166.463 80.8256 166.232 80.0748C166.001 79.3046 165.604 78.621 165.043 78.0241C164.484 77.408 163.731 76.9266 162.785 76.5801C161.837 76.2143 160.65 76.0314 159.221 76.0314H153.544V88.9991ZM175.163 87.4973V84.6957H186.344V87.4973H175.163ZM170.817 91.8872L179.015 73.1722H182.549L190.805 91.8872H187.242L180.058 74.9916H181.507L174.351 91.8872H170.817ZM207.912 73.1722L200.264 85.7932V91.8872H196.961V85.7932L189.314 73.1722H193.108L199.568 84.2048H197.772L204.145 73.1722H207.912ZM209.148 85.6777H212.364C212.44 86.3901 212.72 87.0351 213.203 87.6128C213.704 88.1711 214.362 88.614 215.173 88.9413C216.004 89.2494 216.95 89.4034 218.012 89.4034C218.958 89.4034 219.741 89.2879 220.359 89.0569C220.977 88.8257 221.43 88.508 221.72 88.1037C222.029 87.6801 222.183 87.1892 222.183 86.6308C222.183 86.0724 221.999 85.6392 221.633 85.3312C221.286 85.0038 220.744 84.7343 220.01 84.5224C219.277 84.2914 218.34 84.07 217.2 83.8582C216.254 83.6848 215.337 83.4538 214.449 83.165C213.56 82.8762 212.758 82.5104 212.044 82.0675C211.349 81.6247 210.798 81.0855 210.394 80.4502C209.988 79.7956 209.785 79.0254 209.785 78.1397C209.785 77.1385 210.064 76.2335 210.625 75.4248C211.204 74.6162 212.054 73.9808 213.174 73.5187C214.294 73.0565 215.655 72.8255 217.259 72.8255C219.711 72.8255 221.584 73.3935 222.879 74.5296C224.172 75.6463 224.8 77.1674 224.762 79.0928H221.605C221.546 77.8798 221.102 77.0037 220.272 76.4646C219.441 75.9255 218.389 75.656 217.113 75.656C215.974 75.656 215.018 75.8581 214.246 76.2624C213.473 76.6667 213.088 77.3214 213.088 78.2263C213.088 78.6114 213.174 78.9484 213.348 79.2372C213.541 79.5068 213.85 79.7571 214.275 79.9881C214.7 80.1999 215.28 80.4117 216.013 80.6235C216.766 80.816 217.684 81.0279 218.765 81.2589C219.692 81.4129 220.562 81.6247 221.372 81.8942C222.183 82.1638 222.888 82.5008 223.487 82.9051C224.105 83.3094 224.587 83.8293 224.936 84.4647C225.283 85.1001 225.457 85.8799 225.457 86.8041C225.457 87.863 225.186 88.8065 224.646 89.6344C224.105 90.4431 223.275 91.0882 222.155 91.5695C221.053 92.0316 219.625 92.2626 217.868 92.2626C216.535 92.2626 215.365 92.1086 214.362 91.8006C213.376 91.4732 212.536 91.0593 211.842 90.5587C211.146 90.0387 210.586 89.4804 210.161 88.8836C209.755 88.2866 209.467 87.709 209.292 87.1506C209.137 86.5731 209.089 86.082 209.148 85.6777Z" fill="white"/>
<mask id="mask0_56_1947" style="mask-type:luminance" maskUnits="userSpaceOnUse" x="46" y="19" width="56" height="36">
<path d="M46.3235 19.0679H101.977V54.2409H46.3235V19.0679Z" fill="white"/>
</mask>
<g mask="url(#mask0_56_1947)">
<path d="M66.4097 85.9811C68.4393 83.2897 70.5788 80.645 72.6943 78.0609C71.2117 76.1313 69.7624 74.1967 68.3719 72.2467C66.491 69.596 64.7131 66.9223 63.1528 64.2192C62.3705 62.8696 61.6462 61.5116 60.9898 60.1519C60.3288 58.7942 59.7389 57.433 59.2399 56.0757C58.246 53.367 57.6049 50.6736 57.4674 48.1074C57.403 46.8225 57.4516 45.5514 57.6183 44.2959C57.7849 43.0415 58.084 41.8136 58.4792 40.6223C59.2823 38.2435 60.5347 36.0303 62.1237 34.1312C63.7054 32.2245 65.6169 30.6261 67.7032 29.417C68.7465 28.8131 69.835 28.3072 70.9479 27.8981C71.5031 27.691 72.0669 27.5195 72.6299 27.3455C72.9156 27.2727 73.1993 27.1994 73.4825 27.1267C73.7662 27.0528 74.0545 27.0076 74.3393 26.9445C74.6348 26.8773 74.8889 26.8433 75.1496 26.8005L75.5408 26.7348L75.6414 26.718L75.7687 26.7069L76.0223 26.6839L76.5288 26.6391L76.7814 26.6167L76.9066 26.6056C76.7374 26.606 76.8914 26.6045 76.8669 26.6036L76.9211 26.601C77.2083 26.5873 77.4946 26.573 77.7783 26.5588C78.9183 26.5373 80.0455 26.5675 81.1493 26.6906C82.2484 26.8274 83.322 27.0386 84.3614 27.3144C85.393 27.609 86.395 27.9511 87.355 28.3494C89.2584 29.1753 90.9807 30.2161 92.4795 31.3803C93.9866 32.54 95.2559 33.8321 96.3239 35.1311C97.3882 36.4349 98.238 37.7565 98.9199 39.0092C100.267 41.5287 100.936 43.7606 101.293 45.2978C101.377 45.6852 101.45 46.0271 101.514 46.3227C101.575 46.6214 101.609 46.8785 101.646 47.082C101.714 47.4921 101.749 47.7033 101.749 47.7033C101.749 47.7033 101.773 47.4906 101.821 47.0784C101.843 46.8713 101.879 46.6164 101.903 46.3095C101.924 46.0027 101.944 45.6439 101.963 45.2343C101.973 44.8267 101.966 44.3738 101.968 43.868C101.955 43.6171 101.94 43.354 101.925 43.0802C101.909 42.8044 101.894 42.5175 101.856 42.2217C101.753 41.029 101.506 39.6637 101.088 38.1559C100.672 36.6466 100.052 35.0034 99.1576 33.3007C98.7175 32.4459 98.1976 31.5839 97.6096 30.7142C97.0038 29.8609 96.3469 28.9845 95.5862 28.1439C94.8404 27.2899 93.9988 26.4626 93.0772 25.6677C92.1528 24.8733 91.135 24.1289 90.0481 23.4144C88.947 22.7244 87.7733 22.0665 86.5104 21.5066C85.2452 20.9565 83.9068 20.4762 82.5015 20.0859C81.0935 19.7149 79.6228 19.4254 78.1034 19.2718C77.723 19.2407 77.3402 19.2102 76.9563 19.1787C76.5826 19.1639 76.2069 19.1496 75.8306 19.1348L75.5755 19.1252L75.4476 19.1196L75.2933 19.1217L74.6644 19.1333C74.2427 19.142 73.8113 19.1496 73.4237 19.1837C70.227 19.3512 66.9297 20.1516 63.7636 21.5322C62.1814 22.2268 60.6293 23.0659 59.1514 24.0674C57.6791 25.0739 56.2743 26.2275 54.9707 27.52C52.3706 30.1102 50.18 33.2702 48.6703 36.8318C47.1561 40.3852 46.333 44.3381 46.3269 48.3262L46.3239 48.634C46.3233 48.7374 46.3208 48.8279 46.3269 48.9766L46.3545 49.7856L46.3714 50.1897L46.3974 50.5586L46.4521 51.298C46.5427 52.2781 46.674 53.253 46.8447 54.2113C47.1858 56.1292 47.6586 57.9998 48.2455 59.8093C48.8344 61.6158 49.5231 63.3659 50.2766 65.066C51.0368 66.764 51.867 68.4093 52.7422 70.0137C53.6143 71.6198 54.5484 73.1733 55.5095 74.6953C56.471 76.2163 57.4624 77.7048 58.4848 79.1567C60.5885 82.1645 62.7923 85.0422 65.0198 87.8328C65.4558 87.2455 65.9082 86.6451 66.4097 85.9811Z" fill="#51DBFC"/>
</g>
<mask id="mask1_56_1947" style="mask-type:luminance" maskUnits="userSpaceOnUse" x="53" y="29" width="47" height="26">
<path d="M53.6569 29.5801H99.2006V54.2414H53.6569V29.5801Z" fill="white"/>
</mask>
<g mask="url(#mask1_56_1947)">
<path d="M62.7508 40.7489C62.7508 40.7489 62.7877 40.5947 62.8597 40.296C62.9256 39.9972 63.0464 39.5545 63.2468 38.9836C63.6628 37.8661 64.3822 36.1761 65.9853 34.4592C67.5563 32.7382 70.0618 31.0762 73.2989 30.2366C76.5211 29.3929 80.4305 29.342 84.4313 30.5389C86.4281 31.1347 88.4423 32.0507 90.3486 33.3316C92.2509 34.6124 94.0228 36.2942 95.4707 38.3347C96.925 40.3707 97.9853 42.7935 98.561 45.3622C99.154 47.9346 99.1963 50.6413 98.859 53.2761C98.7818 53.9388 98.6612 54.5901 98.5415 55.247L98.3278 56.2038C98.2337 56.5549 98.134 56.9294 98.0309 57.2612C97.6295 58.5741 97.131 59.83 96.5775 61.041C95.4675 63.4673 94.1321 65.7201 92.6956 67.8788C89.8385 72.2087 86.5983 76.1901 83.3935 80.1253C80.1534 84.0298 76.924 87.8713 73.8576 91.6832C73.0954 92.6394 72.3424 93.5955 71.6108 94.5521C70.8695 95.5043 70.1436 96.4564 69.4417 97.4115C68.0308 99.3198 66.7164 101.243 65.4797 103.156C63.0299 106.991 61.0076 110.86 59.7024 114.694C59.3675 115.649 59.0894 116.603 58.8548 117.551L58.7695 117.906L58.727 118.083L58.7055 118.172L58.6947 118.216C58.6943 118.213 58.681 118.284 58.6907 118.222C58.6385 118.477 58.588 118.732 58.5363 118.988C58.4509 119.48 58.3681 119.875 58.3038 120.36C58.0241 122.217 57.9704 124.047 58.0808 125.794C58.2895 129.298 59.2423 132.462 60.5424 135.065C61.8353 137.683 63.4813 139.725 64.9793 141.277C66.4945 142.82 67.8514 143.907 68.8123 144.594C69.2873 144.948 69.6672 145.199 69.9197 145.374C70.1737 145.549 70.3052 145.64 70.3052 145.64C70.3052 145.64 70.1574 145.58 69.8711 145.468C69.5864 145.348 69.1498 145.196 68.6105 144.936C67.5246 144.434 65.9245 143.657 64.0714 142.324C62.2274 140.998 60.1053 139.109 58.2459 136.427C57.3135 135.092 56.4685 133.561 55.7399 131.865C55.0335 130.164 54.4609 128.291 54.1035 126.288C53.9118 125.287 53.7973 124.252 53.7272 123.194C53.6526 122.136 53.6389 121.051 53.6873 119.949C53.6996 119.418 53.7569 118.794 53.8081 118.259C53.8367 118.003 53.8647 117.744 53.8939 117.484C53.9369 117.193 53.9798 116.902 54.0233 116.609C54.1966 115.491 54.42 114.366 54.7041 113.244C55.8365 108.75 57.79 104.298 60.2136 100.028C61.4145 97.8838 62.7473 95.7841 64.1495 93.7136C64.8479 92.676 65.5676 91.6496 66.2998 90.6263C67.0374 89.6075 67.7951 88.6 68.5578 87.5924C71.6 83.5591 74.8658 79.6575 78.0476 75.7642C79.6539 73.83 81.2397 71.8989 82.7698 69.9615C84.2882 68.0187 85.7926 66.0997 87.1469 64.1456C88.5005 62.1936 89.7552 60.2346 90.7572 58.2703C91.2556 57.2881 91.689 56.3056 92.0306 55.334L92.254 54.6705L92.4779 53.891C92.598 53.38 92.7264 52.8711 92.8127 52.3628C93.5975 48.2959 93.0066 44.3251 91.1222 41.1478C89.2648 37.9521 86.2405 35.6129 83.0868 34.278C79.9233 32.9153 76.63 32.5173 73.8014 32.8354C70.9586 33.1463 68.5869 34.2023 66.9173 35.475C66.0784 36.1095 65.4021 36.7842 64.8535 37.4152C64.3096 38.0513 63.9129 38.6523 63.6051 39.1515C63.3121 39.6542 63.0867 40.0507 62.9579 40.3311C62.8209 40.6064 62.7508 40.7489 62.7508 40.7489Z" fill="url(#paint0_linear_56_1947)"/>
</g>
<path d="M131.624 64.1667C131.498 63.4252 131.327 62.6804 131.106 61.9389C130.878 61.2 130.598 60.4667 130.27 59.7437C128.961 56.8562 126.823 54.1155 123.96 52.0922C121.117 50.0552 117.633 48.7139 114.036 48.2594C112.238 48.0172 110.416 47.9831 108.613 48.1078C106.806 48.2263 105.023 48.5245 103.276 48.9434C101.528 49.3596 99.8189 49.9092 98.1575 50.5611C97.7393 50.7208 97.3307 50.8928 96.9167 51.0638C96.5035 51.2445 96.1109 51.4068 95.6769 51.6113L95.0501 51.9049L94.5135 52.165L94.3784 52.2296L94.1862 52.3278L93.881 52.4861C93.6786 52.592 93.4694 52.6967 93.2742 52.8052C91.6741 53.6677 90.1665 54.5847 88.7192 55.5433C87.2669 56.5001 85.8584 57.4807 84.4816 58.4852C81.7277 60.4968 79.0617 62.5688 76.4229 64.6511C76.3845 64.6807 76.3466 64.7107 76.3082 64.7401C78.1615 66.2612 79.9824 67.7461 81.8172 69.2076C82.6464 69.863 83.6407 70.6432 84.6447 71.4019C85.0589 71.7214 85.4469 72.0166 85.8222 72.3015C87.7449 70.7139 89.6364 69.1582 91.5089 67.6809C92.7512 66.6999 93.9782 65.7493 95.1989 64.8658C96.4208 63.9814 97.6237 63.1526 98.7995 62.4299C98.9478 62.3363 99.0925 62.2554 99.2387 62.1679L99.4575 62.0381L99.5122 62.0055C99.5382 61.9898 99.4641 62.0285 99.527 61.9944L99.6563 61.9215L100.177 61.6285L100.614 61.3897C100.885 61.2346 101.213 61.0688 101.51 60.9094C101.816 60.7563 102.12 60.5995 102.428 60.455C103.039 60.1614 103.651 59.8886 104.264 59.6419C104.876 59.3935 105.485 59.1584 106.095 58.9574C108.532 58.1417 110.936 57.7224 113.184 57.7626C115.429 57.8109 117.52 58.3005 119.314 59.2536C120.208 59.7289 121.025 60.3115 121.767 60.967C122.505 61.6265 123.143 62.3796 123.677 63.1876C124.206 63.9983 124.637 64.8608 124.958 65.7483C125.277 66.6362 125.478 67.5497 125.566 68.4565C125.742 70.2711 125.485 72.0597 124.85 73.6424C124.229 75.2321 123.269 76.6295 122.151 77.7653C121.047 78.9234 119.792 79.8155 118.583 80.535C116.143 81.9654 113.894 82.6682 112.37 83.1175C111.601 83.3333 111.002 83.486 110.596 83.5832C110.189 83.6768 109.979 83.7251 109.979 83.7251C109.979 83.7251 110.194 83.7449 110.611 83.7811C111.03 83.8142 111.652 83.8625 112.469 83.8702C113.288 83.8839 114.302 83.86 115.501 83.7383C116.701 83.6233 118.081 83.3816 119.616 82.9389C121.147 82.487 122.827 81.7961 124.529 80.7035C126.214 79.6018 127.914 78.0649 129.268 76.0035C130.601 73.9436 131.585 71.3734 131.813 68.5364C131.93 67.1223 131.872 65.6501 131.624 64.1667Z" fill="url(#paint1_linear_56_1947)"/>
<mask id="mask2_56_1947" style="mask-type:luminance" maskUnits="userSpaceOnUse" x="7" y="43" width="70" height="56">
<path d="M7.19714 43.3062H76.2981V98.7038H7.19714V43.3062Z" fill="white"/>
</mask>
<g mask="url(#mask2_56_1947)">
<path d="M74.4087 78.7101C71.7048 76.6899 69.0474 74.5603 66.4514 72.4545C64.5134 73.9303 62.5692 75.3724 60.6103 76.7571C57.9473 78.6293 55.2613 80.399 52.5462 81.9516C51.19 82.7306 49.8255 83.4517 48.4595 84.1051C47.0961 84.7631 45.728 85.3504 44.3652 85.847C41.6439 86.8358 38.9375 87.4744 36.3599 87.6112C35.0686 87.6754 33.7915 87.6271 32.5309 87.4611C31.2702 87.2952 30.0366 86.9976 28.8399 86.6043C26.4499 85.8048 24.2266 84.5575 22.3187 82.9764C20.4036 81.402 18.7979 79.4994 17.5832 77.4221C16.9765 76.3841 16.4677 75.3007 16.0573 74.1929C15.8487 73.6402 15.6769 73.079 15.5021 72.5187C15.4285 72.2342 15.3548 71.9518 15.2823 71.6699C15.2081 71.3874 15.162 71.1005 15.0987 70.817C15.0318 70.5229 14.9975 70.27 14.954 70.0105L14.8881 69.6212L14.8717 69.5204L14.86 69.3942L14.8369 69.1419L14.792 68.6375L14.77 68.3861L14.7583 68.2615C14.7592 68.43 14.7572 68.2767 14.7568 68.3006L14.7542 68.2473C14.7403 67.9613 14.7254 67.6763 14.7112 67.3933C14.6898 66.259 14.7199 65.137 14.8442 64.0384C14.9811 62.9438 15.1938 61.8752 15.4709 60.8411C15.7669 59.8142 16.1104 58.8169 16.5102 57.8612C17.3404 55.9666 18.3854 54.2523 19.5556 52.7602C20.7207 51.2602 22.0186 49.9966 23.3232 48.933C24.633 47.8741 25.9606 47.0284 27.2197 46.3495C29.7504 45.0086 31.9931 44.3425 33.5369 43.9863C33.9266 43.904 34.2695 43.8307 34.5665 43.7676C34.8671 43.707 35.1248 43.6719 35.3299 43.6358C35.7418 43.5675 35.9541 43.5329 35.9541 43.5329C35.9541 43.5329 35.7398 43.5085 35.3258 43.4618C35.1182 43.4403 34.8615 43.4037 34.5537 43.3798C34.245 43.3594 33.885 43.3391 33.4736 43.3202C33.0641 43.3096 32.6086 43.3172 32.101 43.3156C31.8484 43.3289 31.5846 43.3437 31.309 43.3583C31.0325 43.3742 30.7437 43.3889 30.4472 43.4272C29.2489 43.5294 27.8771 43.7757 26.3625 44.1914C24.8462 44.6051 23.195 45.2224 21.4844 46.1129C20.6255 46.5505 19.7595 47.0686 18.8864 47.6533C18.0291 48.2563 17.1487 48.9106 16.3042 49.6678C15.4459 50.4103 14.615 51.248 13.8166 52.1653C13.0185 53.0854 12.2706 54.0986 11.5524 55.1805C10.8591 56.2766 10.1986 57.445 9.6363 58.7018C9.08315 59.9613 8.60056 61.2935 8.20845 62.6919C7.83628 64.0934 7.54489 65.5573 7.39101 67.0703C7.35983 67.4488 7.32864 67.8299 7.29746 68.2121C7.28264 68.5842 7.26831 68.9581 7.25349 69.3327L7.24326 69.5866L7.23816 69.7138L7.2402 69.8674L7.25145 70.4934C7.26013 70.9132 7.26831 71.3427 7.30206 71.7284C7.47025 74.9104 8.2744 78.1921 9.66186 81.3435C10.3592 82.919 11.2022 84.4639 12.2088 85.9346C13.2195 87.4006 14.3788 88.7984 15.6775 90.0966C18.2796 92.6843 21.4542 94.8652 25.0317 96.3675C28.6017 97.8752 32.5728 98.6945 36.5797 98.7006L36.8885 98.7032C36.9924 98.7041 37.0839 98.7067 37.2331 98.7006L38.0454 98.6726L38.4514 98.6564L38.8219 98.6303L39.5648 98.5759C40.5499 98.4859 41.5289 98.355 42.4915 98.1851C44.4188 97.8457 46.2975 97.375 48.1155 96.7908C49.9309 96.2041 51.6884 95.5186 53.3964 94.769C55.1023 94.0118 56.7552 93.1855 58.367 92.3148C59.981 91.4466 61.5412 90.5164 63.0707 89.5602C64.5983 88.6031 66.0941 87.6164 67.5521 86.5986C70.574 84.5046 73.4655 82.3108 76.269 80.0932C75.6791 79.6597 75.0758 79.2094 74.4087 78.7101Z" fill="url(#paint2_linear_56_1947)"/>
</g>
<path d="M28.9661 82.3525C28.9661 82.3525 28.8117 82.3158 28.5112 82.244C28.2111 82.1785 27.7669 82.0583 27.1928 81.8588C26.0706 81.4446 24.3728 80.7281 22.6474 79.1328C20.919 77.5691 19.2489 75.0751 18.4058 71.853C17.5578 68.6455 17.5066 64.7537 18.7095 60.7717C19.3077 58.7841 20.2279 56.7792 21.5152 54.8816C22.8018 52.9881 24.4914 51.2243 26.5415 49.7832C28.5863 48.3355 31.0203 47.2801 33.6015 46.7071C36.1851 46.1168 38.9048 46.0746 41.5515 46.4104C42.2171 46.4872 42.8719 46.6073 43.5315 46.726L44.4925 46.9392C44.8452 47.0328 45.222 47.132 45.5549 47.2343C46.8738 47.6342 48.1355 48.1299 49.3527 48.6815C51.7897 49.7863 54.0534 51.1155 56.2215 52.5454C60.5715 55.3895 64.5718 58.6142 68.5251 61.8047C72.4472 65.03 76.3064 68.244 80.1364 71.2968C81.097 72.0549 82.0572 72.8051 83.0187 73.5332C83.9752 74.2705 84.9312 74.9937 85.8913 75.6924C87.8084 77.0969 89.7408 78.4046 91.6619 79.636C95.515 82.0746 99.4019 84.0877 103.253 85.3864C104.213 85.7201 105.171 85.997 106.124 86.23L106.48 86.3155L106.658 86.3578L106.748 86.3787L106.792 86.3898C106.789 86.3903 106.861 86.4035 106.798 86.3933C107.054 86.4458 107.311 86.4962 107.567 86.5471C108.061 86.6326 108.458 86.715 108.945 86.779C110.811 87.0574 112.649 87.1109 114.405 87.001C117.925 86.7929 121.103 85.8448 123.719 84.5507C126.348 83.2639 128.4 81.6252 129.96 80.1343C131.509 78.626 132.602 77.2755 133.291 76.3188C133.648 75.846 133.899 75.4679 134.076 75.2165C134.251 74.9631 134.342 74.8328 134.342 74.8328C134.342 74.8328 134.283 74.9794 134.169 75.2648C134.05 75.5484 133.897 75.983 133.635 76.5192C133.13 77.6006 132.35 79.1933 131.011 81.038C129.678 82.8735 127.781 84.9858 125.086 86.8366C123.746 87.7648 122.207 88.6059 120.504 89.3311C118.795 90.0339 116.914 90.6042 114.901 90.96C113.895 91.1508 112.855 91.2648 111.792 91.3346C110.729 91.4088 109.64 91.4225 108.533 91.3737C107.999 91.3614 107.372 91.305 106.836 91.2541C106.577 91.2252 106.317 91.1976 106.056 91.1686C105.765 91.1258 105.471 91.0831 105.177 91.0394C104.055 90.8674 102.923 90.6449 101.796 90.3615C97.2813 89.2349 92.8092 87.2901 88.5189 84.8779C86.3652 83.6826 84.2563 82.3555 82.1763 80.9602C81.1339 80.265 80.1022 79.5485 79.0741 78.8199C78.0512 78.0851 77.0384 77.3309 76.0267 76.5722C71.9743 73.5438 68.0547 70.2928 64.1434 67.126C62.2007 65.5272 60.2606 63.9481 58.3144 62.4255C56.3626 60.9142 54.4347 59.4161 52.4716 58.0686C50.5102 56.7211 48.5419 55.4724 46.5686 54.475C45.582 53.9789 44.5947 53.5473 43.6189 53.2074L42.9528 52.985L42.169 52.7621C41.6562 52.6425 41.145 52.5148 40.6338 52.4284C36.5482 51.6477 32.5596 52.2355 29.3675 54.1116C26.1565 55.9604 23.8064 58.9704 22.4654 62.1096C21.097 65.2584 20.6971 68.5366 21.0166 71.3527C21.3285 74.182 22.3899 76.5431 23.6683 78.2051C24.3059 79.0402 24.9837 79.7134 25.6171 80.2589C26.2562 80.8004 26.8605 81.1958 27.362 81.5021C27.8671 81.7937 28.2647 82.0182 28.5464 82.1463C28.8236 82.2827 28.9661 82.3525 28.9661 82.3525Z" fill="url(#paint3_linear_56_1947)"/>
<path fill-rule="evenodd" clip-rule="evenodd" d="M83.9724 46.2429C81.8488 46.2394 79.8134 45.4245 78.3123 43.9768C76.8112 42.5292 75.9671 40.567 75.9651 38.5205C73.9499 38.5398 71.99 39.158 70.3531 40.2908C68.7162 41.4237 67.4821 43.0158 66.8194 44.8498C66.1567 46.6839 66.0976 48.6704 66.6502 50.538C67.2029 52.4056 68.3403 54.0632 69.9073 55.2845C71.4741 56.5059 73.394 57.2312 75.4048 57.3616C77.4155 57.4921 79.4189 57.0211 81.1415 56.0132C82.8641 55.0051 84.2218 53.5094 85.0291 51.7299C85.8366 49.9506 86.0543 47.9744 85.6525 46.0714C85.1002 46.1848 84.5371 46.2424 83.9724 46.2429Z" fill="#51DBFC"/>
<defs>
<linearGradient id="paint0_linear_56_1947" x1="75.9978" y1="24.364" x2="91.2878" y2="118.76" gradientUnits="userSpaceOnUse">
<stop stop-color="white" stop-opacity="0.979224"/>
<stop offset="0.14972" stop-color="#1394FC"/>
<stop offset="0.237986" stop-color="#1897FC"/>
<stop offset="0.34143" stop-color="#91C0FF"/>
<stop offset="1" stop-color="#4BDFF9" stop-opacity="0"/>
</linearGradient>
<linearGradient id="paint1_linear_56_1947" x1="104.09" y1="48.0371" x2="104.09" y2="83.8736" gradientUnits="userSpaceOnUse">
<stop stop-color="#016DC0"/>
<stop offset="0.0001" stop-color="white"/>
<stop offset="0.0002" stop-color="#4FE4FD"/>
<stop offset="1" stop-color="#5EA0EF"/>
</linearGradient>
<linearGradient id="paint2_linear_56_1947" x1="41.7535" y1="43.3144" x2="41.7535" y2="98.7045" gradientUnits="userSpaceOnUse">
<stop stop-color="white"/>
<stop offset="0.0001" stop-color="#51DDFC"/>
<stop offset="1" stop-color="#5EA0EF"/>
</linearGradient>
<linearGradient id="paint3_linear_56_1947" x1="76.0637" y1="46.1997" x2="76.0637" y2="91.4024" gradientUnits="userSpaceOnUse">
<stop stop-color="#0A82E4"/>
<stop offset="0.51875" stop-color="#A0DDFF"/>
<stop offset="0.9999" stop-color="#1394FC"/>
<stop offset="1" stop-color="#0A82E4"/>
</linearGradient>
</defs>
</svg>
