<svg width="301" height="114" viewBox="0 0 301 114" fill="none" xmlns="http://www.w3.org/2000/svg">
<path d="M156.672 35.9156H156.062L161.704 24.4766H163.229V36.8277H161.704V27.1179L162.009 27.1939L157.13 36.8277H155.605L150.726 27.2129L151.031 27.1369V36.8277H149.506V24.4766H151.031L156.672 35.9156ZM169.229 24.4766H170.754V36.8277H169.229V24.4766ZM187.417 32.7044C187.291 33.5911 186.986 34.3575 186.503 35.0036C186.021 35.6496 185.404 36.15 184.654 36.5047C183.917 36.8467 183.091 37.0177 182.176 37.0177C181.325 37.0177 180.537 36.8721 179.813 36.5807C179.089 36.2767 178.454 35.846 177.907 35.2886C177.373 34.7312 176.954 34.0599 176.649 33.2744C176.344 32.489 176.192 31.6149 176.192 30.6522C176.192 29.6767 176.344 28.8026 176.649 28.03C176.954 27.2445 177.373 26.5732 177.907 26.0158C178.454 25.4583 179.089 25.0341 179.813 24.7427C180.537 24.4386 181.325 24.2866 182.176 24.2866C183.105 24.2866 183.936 24.464 184.673 24.8187C185.423 25.1607 186.04 25.6611 186.522 26.3198C187.005 26.9659 187.31 27.7385 187.436 28.638H186.026C185.849 28.0046 185.569 27.4725 185.188 27.0419C184.82 26.6112 184.375 26.2818 183.853 26.0538C183.333 25.8258 182.774 25.7117 182.176 25.7117C181.402 25.7117 180.67 25.9018 179.984 26.2818C179.312 26.6618 178.765 27.2193 178.345 27.9539C177.926 28.6886 177.716 29.5881 177.716 30.6522C177.716 31.7163 177.926 32.6157 178.345 33.3504C178.765 34.0851 179.312 34.6425 179.984 35.0226C180.67 35.4026 181.402 35.5926 182.176 35.5926C182.774 35.5926 183.327 35.485 183.834 35.2696C184.356 35.0416 184.801 34.7122 185.168 34.2815C185.55 33.8508 185.83 33.325 186.007 32.7044H187.417ZM192.495 36.8277V24.4766H197.965C198.83 24.4766 199.566 24.6096 200.176 24.8757C200.786 25.1291 201.25 25.5153 201.568 26.0348C201.898 26.5542 202.063 27.2065 202.063 27.9919C202.063 28.524 201.975 28.98 201.796 29.3601C201.632 29.7401 201.396 30.0631 201.091 30.3292C200.786 30.5826 200.424 30.7788 200.005 30.9182C199.599 31.0576 199.154 31.1462 198.671 31.1842L198.613 31.0892C199.287 31.1146 199.866 31.1969 200.348 31.3362C200.831 31.4756 201.205 31.7289 201.472 32.0963C201.739 32.4637 201.873 33.0148 201.873 33.7495V36.8277H200.348V33.7495C200.348 33.2428 200.259 32.85 200.081 32.5714C199.916 32.2799 199.63 32.0773 199.223 31.9633C198.83 31.8367 198.284 31.7733 197.584 31.7733H194.02V36.8277H192.495ZM194.02 30.3482H197.965C198.83 30.3482 199.471 30.1328 199.89 29.7021C200.323 29.2587 200.538 28.6886 200.538 27.9919C200.538 27.3205 200.323 26.8075 199.89 26.4528C199.471 26.0854 198.83 25.9018 197.965 25.9018H194.02V30.3482ZM212.825 37.0177C211.693 37.0177 210.664 36.7581 209.737 36.2387C208.822 35.7066 208.091 34.9656 207.545 34.0155C206.998 33.0654 206.726 31.9443 206.726 30.6522C206.726 29.3601 206.998 28.239 207.545 27.2889C208.091 26.3262 208.822 25.5851 209.737 25.0657C210.664 24.5463 211.693 24.2866 212.825 24.2866C213.955 24.2866 214.978 24.5463 215.893 25.0657C216.82 25.5851 217.557 26.3262 218.104 27.2889C218.65 28.239 218.924 29.3601 218.924 30.6522C218.924 31.9443 218.65 33.0654 218.104 34.0155C217.557 34.9656 216.82 35.7066 215.893 36.2387C214.978 36.7581 213.955 37.0177 212.825 37.0177ZM212.825 35.5926C213.688 35.5926 214.464 35.409 215.15 35.0416C215.836 34.6615 216.382 34.1041 216.789 33.3694C217.195 32.6347 217.399 31.7289 217.399 30.6522C217.399 29.5755 217.195 28.676 216.789 27.9539C216.382 27.2193 215.836 26.6618 215.15 26.2818C214.464 25.9018 213.688 25.7117 212.825 25.7117C211.973 25.7117 211.198 25.9018 210.5 26.2818C209.813 26.6618 209.266 27.2193 208.86 27.9539C208.453 28.676 208.251 29.5755 208.251 30.6522C208.251 31.7289 208.453 32.6347 208.86 33.3694C209.266 34.1041 209.813 34.6615 210.5 35.0416C211.198 35.409 211.973 35.5926 212.825 35.5926ZM223.14 32.8184H224.512C224.55 33.3504 224.71 33.8255 224.989 34.2435C225.268 34.6615 225.649 34.9909 226.132 35.2316C226.628 35.4722 227.206 35.5926 227.867 35.5926C228.438 35.5926 228.915 35.5102 229.296 35.3456C229.689 35.1682 229.982 34.9276 230.173 34.6235C230.376 34.3195 230.478 33.9649 230.478 33.5594C230.478 33.1414 230.376 32.8058 230.173 32.5524C229.97 32.299 229.677 32.0837 229.296 31.9063C228.915 31.7289 228.464 31.5579 227.943 31.3932C227.447 31.2412 226.945 31.0638 226.437 30.8612C225.929 30.6586 225.453 30.4115 225.008 30.1201C224.576 29.8287 224.226 29.4805 223.959 29.075C223.693 28.657 223.559 28.1566 223.559 27.5739C223.559 27.0039 223.712 26.4718 224.017 25.9778C224.334 25.4711 224.791 25.0657 225.389 24.7617C225.999 24.445 226.73 24.2866 227.581 24.2866C228.915 24.2866 229.913 24.6477 230.573 25.3697C231.233 26.0918 231.552 27.0482 231.526 28.239H230.154C230.128 27.3395 229.875 26.6935 229.391 26.3008C228.908 25.9081 228.279 25.7117 227.504 25.7117C226.856 25.7117 226.292 25.8638 225.808 26.1678C225.325 26.4592 225.084 26.9215 225.084 27.5549C225.084 27.8336 225.134 28.0806 225.236 28.296C225.351 28.4986 225.529 28.6886 225.77 28.866C226.025 29.0434 226.361 29.2207 226.78 29.3981C227.212 29.5627 227.74 29.7465 228.362 29.9491C228.769 30.0758 229.182 30.2278 229.601 30.4052C230.033 30.5826 230.427 30.8042 230.783 31.0702C231.152 31.3362 231.443 31.6783 231.659 32.0963C231.888 32.5017 232.002 33.0148 232.002 33.6354C232.002 34.2309 231.857 34.7882 231.564 35.3076C231.285 35.8143 230.84 36.2261 230.23 36.5427C229.632 36.8594 228.858 37.0177 227.905 37.0177C227.092 37.0177 226.392 36.9101 225.808 36.6947C225.236 36.4667 224.767 36.1753 224.398 35.8206C224.029 35.466 223.743 35.0986 223.54 34.7185C223.35 34.3259 223.223 33.9585 223.159 33.6164C223.095 33.2744 223.09 33.0084 223.14 32.8184ZM242.39 37.0177C241.258 37.0177 240.229 36.7581 239.302 36.2387C238.387 35.7066 237.656 34.9656 237.11 34.0155C236.564 33.0654 236.291 31.9443 236.291 30.6522C236.291 29.3601 236.564 28.239 237.11 27.2889C237.656 26.3262 238.387 25.5851 239.302 25.0657C240.229 24.5463 241.258 24.2866 242.39 24.2866C243.521 24.2866 244.543 24.5463 245.458 25.0657C246.385 25.5851 247.123 26.3262 247.669 27.2889C248.215 28.239 248.489 29.3601 248.489 30.6522C248.489 31.9443 248.215 33.0654 247.669 34.0155C247.123 34.9656 246.385 35.7066 245.458 36.2387C244.543 36.7581 243.521 37.0177 242.39 37.0177ZM242.39 35.5926C243.254 35.5926 244.029 35.409 244.715 35.0416C245.401 34.6615 245.947 34.1041 246.354 33.3694C246.761 32.6347 246.964 31.7289 246.964 30.6522C246.964 29.5755 246.761 28.676 246.354 27.9539C245.947 27.2193 245.401 26.6618 244.715 26.2818C244.029 25.9018 243.254 25.7117 242.39 25.7117C241.539 25.7117 240.763 25.9018 240.065 26.2818C239.378 26.6618 238.832 27.2193 238.425 27.9539C238.018 28.676 237.816 29.5755 237.816 30.6522C237.816 31.7289 238.018 32.6347 238.425 33.3694C238.832 34.1041 239.378 34.6615 240.065 35.0416C240.763 35.409 241.539 35.5926 242.39 35.5926ZM262.311 24.4766V25.9018H255.068V29.9681H260.996V31.3932H255.068V36.8277H253.544V24.4766H262.311ZM266.232 24.4766H276.142V25.9018H266.232V24.4766ZM270.425 25.7498H271.949V36.8277H270.425V25.7498ZM153.022 58.1129V55.3692H160.612C161.674 55.3692 162.523 55.0612 163.16 54.445C163.818 53.8288 164.146 53.0009 164.146 51.9612C164.146 50.883 163.818 50.0454 163.16 49.4485C162.523 48.8324 161.674 48.5244 160.612 48.5244H153.485V64.3802H150.182V45.6651H160.379C161.365 45.6651 162.282 45.7999 163.132 46.0695C163.981 46.3197 164.725 46.7048 165.362 47.2246C166.019 47.7446 166.522 48.3992 166.869 49.1886C167.235 49.9588 167.419 50.883 167.419 51.9612C167.419 53.0201 167.235 53.9444 166.869 54.7338C166.522 55.5039 166.019 56.1394 165.362 56.64C164.725 57.1405 163.981 57.5161 163.132 57.7664C162.282 57.9974 161.365 58.1129 160.379 58.1129H153.022ZM186.474 56.4956V45.6651H189.748V56.7555C189.748 57.93 189.583 58.9601 189.255 59.8458C188.946 60.7314 188.502 61.4824 187.923 62.0986C187.343 62.7147 186.658 63.2249 185.865 63.6292C185.075 64.0144 184.205 64.2936 183.258 64.4668C182.331 64.6401 181.347 64.7267 180.304 64.7267C179.222 64.7267 178.198 64.6401 177.233 64.4668C176.268 64.2936 175.388 64.0144 174.597 63.6292C173.805 63.2249 173.119 62.7147 172.54 62.0986C171.979 61.4824 171.536 60.7314 171.208 59.8458C170.899 58.9601 170.745 57.93 170.745 56.7555V45.6651H174.046V56.4956C174.046 57.959 174.317 59.0756 174.857 59.8458C175.418 60.5967 176.171 61.1166 177.117 61.4055C178.063 61.6941 179.125 61.8386 180.304 61.8386C181.444 61.8386 182.477 61.6941 183.403 61.4055C184.33 61.1166 185.075 60.5967 185.634 59.8458C186.194 59.0756 186.474 57.959 186.474 56.4956ZM193.963 64.3802V45.6651H205.058C206.448 45.6651 207.656 45.8672 208.679 46.2716C209.703 46.6566 210.494 47.2632 211.055 48.0911C211.615 48.8998 211.895 49.9396 211.895 51.2102C211.895 52.0574 211.751 52.7891 211.461 53.4053C211.171 54.0021 210.765 54.4932 210.244 54.8782C209.722 55.2633 209.114 55.5618 208.418 55.7735C207.743 55.9854 207.019 56.1201 206.247 56.1778L205.957 55.9757C207.193 55.995 208.215 56.1105 209.027 56.3222C209.838 56.5148 210.456 56.8902 210.881 57.4486C211.305 57.9877 211.518 58.7869 211.518 59.8458V64.3802H208.245V60.0191C208.245 59.2874 208.109 58.7194 207.839 58.3151C207.588 57.8915 207.144 57.6027 206.507 57.4486C205.889 57.2753 205.001 57.1887 203.841 57.1887H197.266V64.3802H193.963ZM197.266 54.5028H205.058C206.217 54.5028 207.096 54.214 207.694 53.6363C208.293 53.0587 208.592 52.2982 208.592 51.3547C208.592 50.4498 208.293 49.7566 207.694 49.2752C207.096 48.7746 206.217 48.5244 205.058 48.5244H197.266V54.5028ZM221.343 64.3802L213.55 45.6651H217.142L223.834 62.3873H222.763L229.425 45.6651H232.96L225.254 64.3802H221.343ZM236.058 45.6651H239.361V64.3802H236.058V45.6651ZM247.431 56.409V61.5499H260.612V64.3802H244.13V45.6651H260.583V48.4954H247.431V53.694H258.208V56.409H247.431ZM270.144 64.3802L262.642 45.6651H266.233L272.607 62.1274H271.563L277.647 45.6651H281.384L287.468 62.1274H286.425L292.797 45.6651H296.332L288.916 64.3802H285.033L279.037 47.9467H280.022L273.997 64.3802H270.144ZM159.251 73.2176C161.278 73.2176 162.977 73.4679 164.349 73.9684C165.72 74.4691 166.81 75.1526 167.622 76.019C168.433 76.8662 169.013 77.8481 169.36 78.9649C169.726 80.0817 169.91 81.2561 169.91 82.4884C169.91 83.7399 169.717 84.9337 169.332 86.0696C168.945 87.2057 168.327 88.2165 167.477 89.1023C166.647 89.9686 165.555 90.6618 164.203 91.1816C162.851 91.6823 161.2 91.9326 159.251 91.9326H150.241V73.2176H159.251ZM153.544 89.0445H159.221C160.65 89.0445 161.837 88.8615 162.785 88.4957C163.731 88.13 164.484 87.6389 165.043 87.0228C165.604 86.3874 166 85.6846 166.232 84.9145C166.463 84.1251 166.579 83.3163 166.579 82.4884C166.579 81.6604 166.463 80.871 166.232 80.1202C166 79.35 165.604 78.6664 165.043 78.0695C164.484 77.4535 163.731 76.972 162.785 76.6255C161.837 76.2597 160.65 76.0768 159.221 76.0768H153.544V89.0445ZM175.162 87.5427V84.7411H186.343V87.5427H175.162ZM170.817 91.9326L179.015 73.2176H182.549L190.805 91.9326H187.242L180.058 75.037H181.506L174.351 91.9326H170.817ZM207.912 73.2176L200.263 85.8386V91.9326H196.961V85.8386L189.314 73.2176H193.108L199.568 84.2502H197.772L204.145 73.2176H207.912ZM209.148 85.7231H212.363C212.44 86.4356 212.72 87.0805 213.203 87.6582C213.704 88.2166 214.362 88.6594 215.173 88.9867C216.004 89.2948 216.95 89.4488 218.012 89.4488C218.958 89.4488 219.741 89.3333 220.359 89.1023C220.977 88.8712 221.43 88.5534 221.72 88.1491C222.029 87.7255 222.183 87.2346 222.183 86.6762C222.183 86.1178 221.999 85.6846 221.633 85.3766C221.286 85.0492 220.744 84.7797 220.01 84.5678C219.276 84.3368 218.34 84.1154 217.2 83.9036C216.254 83.7303 215.337 83.4992 214.449 83.2104C213.56 82.9216 212.758 82.5558 212.043 82.1129C211.349 81.6701 210.798 81.131 210.393 80.4956C209.988 79.841 209.785 79.0708 209.785 78.1852C209.785 77.1839 210.064 76.2789 210.625 75.4702C211.203 74.6616 212.054 74.0262 213.173 73.5641C214.294 73.1019 215.655 72.8709 217.259 72.8709C219.711 72.8709 221.584 73.4389 222.879 74.575C224.172 75.6917 224.799 77.2128 224.761 79.1382H221.604C221.546 77.9252 221.102 77.0491 220.271 76.51C219.441 75.9709 218.389 75.7014 217.113 75.7014C215.974 75.7014 215.018 75.9035 214.246 76.3078C213.473 76.7121 213.088 77.3669 213.088 78.2717C213.088 78.6568 213.173 78.9938 213.348 79.2826C213.541 79.5522 213.85 79.8025 214.275 80.0335C214.699 80.2453 215.279 80.4571 216.013 80.669C216.766 80.8614 217.684 81.0733 218.764 81.3043C219.692 81.4583 220.561 81.6701 221.371 81.9396C222.183 82.2092 222.888 82.5462 223.487 82.9505C224.105 83.3548 224.587 83.8747 224.936 84.5101C225.283 85.1455 225.457 85.9254 225.457 86.8495C225.457 87.9085 225.186 88.8519 224.646 89.6798C224.105 90.4885 223.275 91.1336 222.154 91.6149C221.053 92.077 219.625 92.308 217.867 92.308C216.535 92.308 215.365 92.154 214.362 91.846C213.376 91.5186 212.536 91.1047 211.842 90.6041C211.146 90.0841 210.585 89.5258 210.161 88.929C209.755 88.3321 209.466 87.7544 209.292 87.196C209.137 86.6185 209.089 86.1275 209.148 85.7231Z" fill="black"/>
<mask id="mask0_180_1250" style="mask-type:luminance" maskUnits="userSpaceOnUse" x="46" y="19" width="56" height="36">
<path d="M46.3232 19.1133H101.977V54.2863H46.3232V19.1133Z" fill="white"/>
</mask>
<g mask="url(#mask0_180_1250)">
<path d="M66.4096 86.0265C68.4392 83.3351 70.5787 80.6904 72.6941 78.1064C71.2116 76.1767 69.7623 74.2421 68.3718 72.2921C66.4909 69.6414 64.7129 66.9677 63.1527 64.2646C62.3704 62.9151 61.646 61.557 60.9897 60.1973C60.3286 58.8396 59.7387 57.4784 59.2398 56.1211C58.2459 53.4124 57.6048 50.719 57.4673 48.1528C57.4029 46.8679 57.4515 45.5968 57.6181 44.3413C57.7848 43.0869 58.0839 41.859 58.4791 40.6678C59.2821 38.2889 60.5346 36.0757 62.1236 34.1766C63.7052 32.27 65.6168 30.6715 67.7031 29.4625C68.7464 28.8585 69.8348 28.3526 70.9478 27.9435C71.5029 27.7364 72.0668 27.5649 72.6297 27.3909C72.9155 27.3181 73.1992 27.2448 73.4824 27.1721C73.7661 27.0982 74.0544 27.053 74.3392 26.9899C74.6346 26.9227 74.8888 26.8887 75.1495 26.8459L75.5406 26.7802L75.6412 26.7634L75.7685 26.7523L76.0222 26.7293L76.5287 26.6845L76.7813 26.6622L76.9065 26.651C76.7373 26.6514 76.8913 26.6499 76.8668 26.649L76.9209 26.6464C77.2082 26.6327 77.4945 26.6184 77.7782 26.6042C78.9182 26.5828 80.0454 26.6129 81.1492 26.736C82.2483 26.8728 83.3218 27.084 84.3613 27.3598C85.3929 27.6544 86.3949 27.9965 87.3549 28.3948C89.2583 29.2207 90.9805 30.2615 92.4794 31.4257C93.9865 32.5854 95.2558 33.8775 96.3238 35.1765C97.3881 36.4803 98.2379 37.8019 98.9198 39.0546C100.267 41.5741 100.936 43.806 101.293 45.3433C101.377 45.7306 101.45 46.0725 101.514 46.3681C101.575 46.6669 101.609 46.9239 101.646 47.1274C101.714 47.5375 101.749 47.7487 101.749 47.7487C101.749 47.7487 101.773 47.536 101.82 47.1238C101.842 46.9167 101.879 46.6618 101.903 46.355C101.924 46.0481 101.944 45.6894 101.963 45.2797C101.973 44.8721 101.966 44.4192 101.968 43.9134C101.954 43.6626 101.94 43.3994 101.925 43.1256C101.909 42.8498 101.894 42.5629 101.856 42.2672C101.753 41.0744 101.506 39.7091 101.088 38.2013C100.672 36.6921 100.052 35.0488 99.1575 33.3461C98.7174 32.4913 98.1975 31.6293 97.6095 30.7596C97.0037 29.9063 96.3468 29.0299 95.5861 28.1893C94.8403 27.3354 93.9987 26.508 93.0771 25.7132C92.1527 24.9187 91.1349 24.1743 90.048 23.4598C88.9469 22.7698 87.7731 22.1119 86.5103 21.5521C85.2451 21.002 83.9067 20.5216 82.5013 20.1313C81.0934 19.7603 79.6227 19.4708 78.1033 19.3172C77.7229 19.2861 77.3401 19.2556 76.9562 19.2241C76.5825 19.2093 76.2068 19.195 75.8305 19.1802L75.5753 19.1706L75.4475 19.165L75.2931 19.1671L74.6643 19.1787C74.2426 19.1874 73.8111 19.195 73.4236 19.2291C70.2269 19.3966 66.9295 20.197 63.7635 21.5776C62.1813 22.2722 60.6292 23.1113 59.1513 24.1128C57.679 25.1194 56.2742 26.2729 54.9705 27.5654C52.3704 30.1556 50.1799 33.3156 48.6702 36.8772C47.156 40.4306 46.3329 44.3835 46.3268 48.3716L46.3238 48.6794C46.3232 48.7828 46.3206 48.8734 46.3268 49.022L46.3544 49.831L46.3713 50.2351L46.3973 50.604L46.452 51.3434C46.5425 52.3235 46.6739 53.2984 46.8446 54.2567C47.1856 56.1746 47.6585 58.0452 48.2453 59.8547C48.8343 61.6612 49.523 63.4113 50.2765 65.1114C51.0367 66.8095 51.8669 68.4547 52.7421 70.0591C53.6142 71.6652 54.5482 73.2187 55.5094 74.7408C56.4709 76.2617 57.4623 77.7502 58.4847 79.2021C60.5884 82.2099 62.7922 85.0876 65.0197 87.8782C65.4557 87.291 65.9081 86.6905 66.4096 86.0265Z" fill="#51DBFC"/>
</g>
<mask id="mask1_180_1250" style="mask-type:luminance" maskUnits="userSpaceOnUse" x="53" y="29" width="47" height="26">
<path d="M53.6567 29.6255H99.2005V54.2868H53.6567V29.6255Z" fill="white"/>
</mask>
<g mask="url(#mask1_180_1250)">
<path d="M62.7506 40.7943C62.7506 40.7943 62.7875 40.6401 62.8595 40.3414C62.9254 40.0426 63.0461 39.5999 63.2465 39.029C63.6626 37.9115 64.3819 36.2215 65.9851 34.5046C67.5561 32.7836 70.0616 31.1216 73.2987 30.282C76.5209 29.4383 80.4302 29.3874 84.431 30.5843C86.4279 31.1801 88.442 32.0961 90.3484 33.377C92.2506 34.6578 94.0226 36.3396 95.4704 38.3801C96.9248 40.4162 97.985 42.8389 98.5607 45.4076C99.1537 47.98 99.1961 50.6867 98.8587 53.3216C98.7815 53.9842 98.6609 54.6355 98.5413 55.2924L98.3275 56.2492C98.2335 56.6003 98.1338 56.9748 98.0306 57.3066C97.6293 58.6195 97.1307 59.8754 96.5772 61.0865C95.4673 63.5127 94.1319 65.7655 92.6954 67.9242C89.8383 72.2542 86.5981 76.2355 83.3932 80.1707C80.1532 84.0752 76.9237 87.9167 73.8574 91.7286C73.0951 92.6848 72.3421 93.641 71.6105 94.5976C70.8693 95.5497 70.1434 96.5018 69.4415 97.4569C68.0305 99.3652 66.7161 101.289 65.4795 103.202C63.0297 107.036 61.0073 110.906 59.7022 114.739C59.3673 115.695 59.0892 116.648 58.8546 117.597L58.7692 117.952L58.7268 118.128L58.7053 118.218L58.6945 118.262C58.6941 118.259 58.6807 118.33 58.6904 118.268C58.6383 118.523 58.5878 118.778 58.536 119.033C58.4507 119.526 58.3679 119.921 58.3035 120.405C58.0239 122.262 57.9701 124.092 58.0805 125.84C58.2892 129.344 59.242 132.507 60.5422 135.111C61.8351 137.728 63.4811 139.771 64.979 141.322C66.4942 142.865 67.8511 143.952 68.8121 144.639C69.2871 144.993 69.6669 145.244 69.9194 145.42C70.1735 145.595 70.305 145.686 70.305 145.686C70.305 145.686 70.1571 145.626 69.8708 145.513C69.5862 145.394 69.1496 145.242 68.6102 144.981C67.5244 144.479 65.9242 143.703 64.0711 142.37C62.2271 141.044 60.105 139.154 58.2457 136.473C57.3132 135.138 56.4682 133.606 55.7396 131.91C55.0332 130.209 54.4606 128.337 54.1033 126.333C53.9116 125.332 53.7971 124.297 53.727 123.239C53.6524 122.181 53.6386 121.096 53.6871 119.995C53.6993 119.463 53.7567 118.839 53.8078 118.305C53.8364 118.048 53.8645 117.789 53.8936 117.53C53.9366 117.239 53.9795 116.947 54.0231 116.655C54.1964 115.537 54.4198 114.411 54.7039 113.29C55.8363 108.795 57.7897 104.344 60.2134 100.073C61.4143 97.9292 62.747 95.8295 64.1493 93.759C64.8476 92.7214 65.5674 91.695 66.2995 90.6717C67.0371 89.6529 67.7949 88.6454 68.5575 87.6378C71.5998 83.6045 74.8656 79.7029 78.0474 75.8096C79.6537 73.8754 81.2394 71.9443 82.7696 70.0069C84.2879 68.0641 85.7924 66.1451 87.1467 64.1911C88.5003 62.239 89.755 60.28 90.7569 58.3157C91.2553 57.3335 91.6888 56.351 92.0304 55.3794L92.2538 54.7159L92.4777 53.9364C92.5978 53.4254 92.7262 52.9165 92.8125 52.4083C93.5973 48.3414 93.0063 44.3705 91.1219 41.1932C89.2646 37.9975 86.2403 35.6583 83.0865 34.3234C79.9231 32.9607 76.6298 32.5628 73.8011 32.8808C70.9583 33.1917 68.5867 34.2477 66.9171 35.5204C66.0782 36.1549 65.4019 36.8296 64.8532 37.4606C64.3094 38.0967 63.9127 38.6977 63.6048 39.1969C63.3119 39.6997 63.0864 40.0961 62.9576 40.3765C62.8207 40.6518 62.7506 40.7943 62.7506 40.7943Z" fill="url(#paint0_linear_180_1250)"/>
</g>
<path d="M131.624 64.2121C131.498 63.4706 131.326 62.7258 131.106 61.9843C130.878 61.2454 130.597 60.5121 130.27 59.7891C128.961 56.9016 126.823 54.1609 123.96 52.1376C121.117 50.1007 117.633 48.7593 114.036 48.3049C112.238 48.0626 110.416 48.0285 108.613 48.1533C106.806 48.2717 105.022 48.5699 103.276 48.9888C101.528 49.4051 99.8188 49.9546 98.1574 50.6065C97.7391 50.7663 97.3306 50.9382 96.9166 51.1092C96.5034 51.2899 96.1108 51.4522 95.6768 51.6568L95.05 51.9503L94.5134 52.2104L94.3783 52.275L94.1861 52.3733L93.8809 52.5315C93.6784 52.6374 93.4693 52.7422 93.2741 52.8506C91.6739 53.7131 90.1664 54.6301 88.7191 55.5887C87.2668 56.5455 85.8583 57.5261 84.4815 58.5306C81.7276 60.5422 79.0616 62.6142 76.4227 64.6965C76.3843 64.7261 76.3465 64.7561 76.3081 64.7856C78.1613 66.3066 79.9823 67.7915 81.817 69.253C82.6463 69.9084 83.6406 70.6886 84.6446 71.4473C85.0587 71.7668 85.4467 72.062 85.8221 72.3469C87.7447 70.7593 89.6362 69.2036 91.5088 67.7263C92.7511 66.7453 93.9781 65.7947 95.1988 64.9112C96.4206 64.0268 97.6236 63.198 98.7994 62.4754C98.9476 62.3817 99.0923 62.3008 99.2386 62.2133L99.4573 62.0835L99.5121 62.0509C99.5381 62.0352 99.464 62.0739 99.5269 62.0398L99.6562 61.9669L100.177 61.6739L100.614 61.4352C100.885 61.28 101.212 61.1142 101.51 60.9548C101.816 60.8017 102.12 60.645 102.428 60.5004C103.039 60.2068 103.651 59.934 104.264 59.6873C104.876 59.4389 105.485 59.2038 106.095 59.0028C108.532 58.1871 110.936 57.7678 113.184 57.808C115.428 57.8563 117.52 58.3459 119.314 59.299C120.208 59.7743 121.025 60.3569 121.767 61.0124C122.505 61.6719 123.143 62.425 123.676 63.233C124.206 64.0437 124.637 64.9062 124.958 65.7937C125.277 66.6817 125.478 67.5951 125.566 68.5019C125.742 70.3165 125.485 72.1051 124.85 73.6878C124.229 75.2775 123.268 76.6749 122.151 77.8107C121.047 78.9688 119.792 79.8609 118.583 80.5804C116.143 82.0108 113.894 82.7136 112.37 83.1629C111.601 83.3787 111.002 83.5314 110.596 83.6286C110.189 83.7222 109.979 83.7705 109.979 83.7705C109.979 83.7705 110.194 83.7904 110.611 83.8265C111.03 83.8596 111.652 83.9079 112.469 83.9156C113.288 83.9293 114.302 83.9055 115.501 83.7837C116.701 83.6687 118.081 83.427 119.616 82.9843C121.147 82.5324 122.827 81.8415 124.529 80.7489C126.214 79.6472 127.913 78.1103 129.268 76.0489C130.6 73.989 131.585 71.4188 131.813 68.5818C131.93 67.1677 131.872 65.6955 131.624 64.2121Z" fill="url(#paint1_linear_180_1250)"/>
<mask id="mask2_180_1250" style="mask-type:luminance" maskUnits="userSpaceOnUse" x="7" y="43" width="70" height="56">
<path d="M7.19727 43.3516H76.2982V98.7492H7.19727V43.3516Z" fill="white"/>
</mask>
<g mask="url(#mask2_180_1250)">
<path d="M74.4088 78.7556C71.705 76.7353 69.0476 74.6057 66.4516 72.4999C64.5135 73.9757 62.5693 75.4178 60.6104 76.8025C57.9475 78.6747 55.2615 80.4444 52.5463 81.997C51.1901 82.776 49.8256 83.4972 48.4596 84.1505C47.0962 84.8085 45.7282 85.3958 44.3653 85.8925C41.644 86.8812 38.9376 87.5198 36.36 87.6566C35.0687 87.7208 33.7916 87.6725 32.531 87.5065C31.2704 87.3407 30.0367 87.043 28.84 86.6497C26.45 85.8503 24.2267 84.6029 22.3188 83.0219C20.4037 81.4474 18.798 79.5448 17.5834 77.4675C16.9766 76.4295 16.4679 75.3461 16.0574 74.2383C15.8488 73.6856 15.677 73.1244 15.5022 72.5641C15.4286 72.2796 15.3549 71.9972 15.2824 71.7153C15.2082 71.4329 15.1622 71.1459 15.0989 70.8624C15.0319 70.5683 14.9976 70.3154 14.9541 70.0559L14.8883 69.6667L14.8718 69.5658L14.8601 69.4396L14.8371 69.1873L14.7921 68.6829L14.7701 68.4315L14.7584 68.3069C14.7593 68.4754 14.7573 68.3221 14.7569 68.346L14.7543 68.2927C14.7404 68.0067 14.7256 67.7217 14.7113 67.4387C14.6899 66.3044 14.72 65.1824 14.8443 64.0838C14.9812 62.9892 15.1939 61.9206 15.4711 60.8865C15.767 59.8596 16.1105 58.8623 16.5103 57.9066C17.3405 56.012 18.3855 54.2977 19.5557 52.8056C20.7208 51.3056 22.0187 50.042 23.3233 48.9784C24.6331 47.9195 25.9607 47.0738 27.2199 46.3949C29.7505 45.054 31.9933 44.3879 33.5371 44.0318C33.9267 43.9494 34.2696 43.8761 34.5667 43.813C34.8673 43.7524 35.125 43.7173 35.33 43.6812C35.7419 43.6129 35.9542 43.5783 35.9542 43.5783C35.9542 43.5783 35.7399 43.5539 35.3259 43.5072C35.1183 43.4857 34.8617 43.4491 34.5539 43.4252C34.2451 43.4048 33.8852 43.3845 33.4737 43.3656C33.0642 43.355 32.6087 43.3626 32.1011 43.361C31.8485 43.3743 31.5847 43.3891 31.3092 43.4037C31.0327 43.4196 30.7438 43.4343 30.4473 43.4726C29.249 43.5748 27.8773 43.8211 26.3626 44.2368C24.8463 44.6505 23.1951 45.2678 21.4845 46.1583C20.6256 46.5959 19.7597 47.114 18.8865 47.6987C18.0292 48.3017 17.1488 48.956 16.3044 49.7133C15.446 50.4557 14.6152 51.2934 13.8167 52.2108C13.0187 53.1308 12.2708 54.144 11.5525 55.2259C10.8593 56.322 10.1988 57.4904 9.63643 58.7472C9.08327 60.0067 8.60068 61.3389 8.20857 62.7373C7.8364 64.1388 7.54501 65.6027 7.39114 67.1157C7.35995 67.4942 7.32876 67.8753 7.29758 68.2575C7.28276 68.6296 7.26844 69.0035 7.25361 69.3781L7.24339 69.632L7.23828 69.7592L7.24032 69.9129L7.25157 70.5388C7.26025 70.9586 7.26844 71.3881 7.30218 71.7738C7.47037 74.9558 8.27452 78.2375 9.66198 81.3889C10.3593 82.9644 11.2023 84.5093 12.2089 85.98C13.2196 87.446 14.379 88.8438 15.6776 90.142C18.2797 92.7297 21.4543 94.9107 25.0319 96.4129C28.6018 97.9207 32.5729 98.7399 36.5799 98.746L36.8886 98.7486C36.9925 98.7495 37.084 98.7521 37.2332 98.746L38.0455 98.7181L38.4515 98.7018L38.822 98.6757L39.5649 98.6213C40.55 98.5313 41.529 98.4004 42.4916 98.2305C44.4189 97.8911 46.2976 97.4204 48.1156 96.8362C49.931 96.2495 51.6885 95.564 53.3965 94.8144C55.1025 94.0572 56.7553 93.2309 58.3672 92.3602C59.9811 91.492 61.5414 90.5619 63.0709 89.6057C64.5985 88.6485 66.0942 87.6618 67.5522 86.644C70.5741 84.55 73.4656 82.3562 76.2691 80.1386C75.6792 79.7051 75.0759 79.2548 74.4088 78.7556Z" fill="url(#paint2_linear_180_1250)"/>
</g>
<path d="M28.9661 82.3979C28.9661 82.3979 28.8117 82.3612 28.5112 82.2894C28.2111 82.2239 27.7669 82.1038 27.1928 81.9042C26.0706 81.49 24.3728 80.7735 22.6474 79.1782C20.919 77.6145 19.2489 75.1205 18.4058 71.8984C17.5578 68.6909 17.5066 64.7991 18.7095 60.8171C19.3077 58.8296 20.2279 56.8246 21.5152 54.927C22.8018 53.0335 24.4914 51.2697 26.5415 49.8286C28.5863 48.3809 31.0203 47.3255 33.6015 46.7525C36.1851 46.1622 38.9048 46.12 41.5515 46.4558C42.2171 46.5326 42.8719 46.6527 43.5315 46.7714L44.4925 46.9846C44.8452 47.0782 45.222 47.1775 45.5549 47.2797C46.8738 47.6796 48.1355 48.1753 49.3527 48.7269C51.7897 49.8317 54.0534 51.1609 56.2215 52.5908C60.5715 55.4349 64.5718 58.6596 68.5251 61.8501C72.4472 65.0754 76.3064 68.2894 80.1364 71.3422C81.097 72.1003 82.0572 72.8505 83.0187 73.5787C83.9752 74.3159 84.9312 75.0391 85.8913 75.7378C87.8084 77.1423 89.7408 78.45 91.6619 79.6814C95.515 82.12 99.4019 84.1331 103.253 85.4318C104.213 85.7655 105.171 86.0424 106.124 86.2754L106.48 86.361L106.658 86.4032L106.748 86.4241L106.792 86.4352C106.789 86.4357 106.861 86.4489 106.798 86.4387C107.054 86.4912 107.311 86.5416 107.567 86.5925C108.061 86.678 108.458 86.7604 108.945 86.8245C110.811 87.1028 112.649 87.1563 114.405 87.0464C117.925 86.8383 121.103 85.8903 123.719 84.5961C126.348 83.3093 128.4 81.6707 129.96 80.1797C131.509 78.6714 132.602 77.3209 133.291 76.3642C133.648 75.8914 133.899 75.5133 134.076 75.2619C134.251 75.0085 134.342 74.8782 134.342 74.8782C134.342 74.8782 134.283 75.0248 134.169 75.3103C134.05 75.5938 133.897 76.0284 133.635 76.5646C133.13 77.646 132.35 79.2387 131.011 81.0834C129.678 82.9189 127.781 85.0312 125.086 86.882C123.746 87.8102 122.207 88.6513 120.504 89.3765C118.795 90.0793 116.914 90.6496 114.901 91.0054C113.895 91.1962 112.855 91.3102 111.792 91.38C110.729 91.4542 109.64 91.4679 108.533 91.4191C107.999 91.4068 107.372 91.3504 106.836 91.2995C106.577 91.2706 106.317 91.243 106.056 91.214C105.765 91.1712 105.471 91.1285 105.177 91.0848C104.055 90.9128 102.923 90.6903 101.796 90.4069C97.2813 89.2803 92.8092 87.3355 88.5189 84.9233C86.3652 83.728 84.2563 82.4009 82.1763 81.0056C81.1339 80.3104 80.1022 79.5939 79.0741 78.8653C78.0512 78.1305 77.0384 77.3763 76.0267 76.6176C71.9743 73.5892 68.0547 70.3382 64.1434 67.1714C62.2007 65.5726 60.2606 63.9935 58.3144 62.471C56.3626 60.9596 54.4347 59.4615 52.4716 58.114C50.5102 56.7665 48.5419 55.5178 46.5686 54.5204C45.582 54.0243 44.5947 53.5927 43.6189 53.2528L42.9528 53.0304L42.169 52.8075C41.6562 52.6879 41.145 52.5602 40.6338 52.4738C36.5482 51.6931 32.5596 52.2809 29.3675 54.157C26.1565 56.0058 23.8064 59.0158 22.4654 62.155C21.097 65.3038 20.6971 68.582 21.0166 71.3981C21.3285 74.2274 22.3899 76.5885 23.6683 78.2505C24.3059 79.0856 24.9837 79.7588 25.6171 80.3043C26.2562 80.8459 26.8605 81.2412 27.362 81.5476C27.8671 81.8391 28.2647 82.0636 28.5464 82.1917C28.8236 82.3281 28.9661 82.3979 28.9661 82.3979Z" fill="url(#paint3_linear_180_1250)"/>
<path fill-rule="evenodd" clip-rule="evenodd" d="M83.9723 46.2883C81.8487 46.2848 79.8133 45.4699 78.3121 44.0222C76.8111 42.5746 75.967 40.6124 75.965 38.5659C73.9497 38.5852 71.9899 39.2034 70.353 40.3362C68.7161 41.4691 67.482 43.0612 66.8193 44.8952C66.1566 46.7293 66.0975 48.7158 66.65 50.5834C67.2028 52.451 68.3402 54.1086 69.9071 55.3299C71.4739 56.5513 73.3939 57.2766 75.4046 57.407C77.4154 57.5375 79.4188 57.0665 81.1413 56.0586C82.864 55.0506 84.2217 53.5549 85.029 51.7753C85.8365 49.996 86.0541 48.0198 85.6524 46.1168C85.1001 46.2302 84.537 46.2878 83.9723 46.2883Z" fill="#51DBFC"/>
<defs>
<linearGradient id="paint0_linear_180_1250" x1="75.9976" y1="24.4094" x2="91.2876" y2="118.805" gradientUnits="userSpaceOnUse">
<stop stop-color="white" stop-opacity="0.979224"/>
<stop offset="0.14972" stop-color="#1394FC"/>
<stop offset="0.237986" stop-color="#1897FC"/>
<stop offset="0.34143" stop-color="#91C0FF"/>
<stop offset="1" stop-color="#4BDFF9" stop-opacity="0"/>
</linearGradient>
<linearGradient id="paint1_linear_180_1250" x1="104.09" y1="48.0825" x2="104.09" y2="83.919" gradientUnits="userSpaceOnUse">
<stop stop-color="#016DC0"/>
<stop offset="0.0001" stop-color="white"/>
<stop offset="0.0002" stop-color="#4FE4FD"/>
<stop offset="1" stop-color="#5EA0EF"/>
</linearGradient>
<linearGradient id="paint2_linear_180_1250" x1="41.7536" y1="43.3598" x2="41.7536" y2="98.7499" gradientUnits="userSpaceOnUse">
<stop stop-color="white"/>
<stop offset="0.0001" stop-color="#51DDFC"/>
<stop offset="1" stop-color="#5EA0EF"/>
</linearGradient>
<linearGradient id="paint3_linear_180_1250" x1="76.0637" y1="46.2452" x2="76.0637" y2="91.4478" gradientUnits="userSpaceOnUse">
<stop stop-color="#0A82E4"/>
<stop offset="0.51875" stop-color="#A0DDFF"/>
<stop offset="0.9999" stop-color="#1394FC"/>
<stop offset="1" stop-color="#0A82E4"/>
</linearGradient>
</defs>
</svg>
