<?xml version="1.0" encoding="UTF-8" standalone="no"?><!DOCTYPE svg PUBLIC "-//W3C//DTD SVG 1.1//EN" "http://www.w3.org/Graphics/SVG/1.1/DTD/svg11.dtd"><svg width="100%" height="100%" viewBox="0 0 2000 2000" version="1.1" xmlns="http://www.w3.org/2000/svg" xmlns:xlink="http://www.w3.org/1999/xlink" xml:space="preserve" xmlns:serif="http://www.serif.com/" style="fill-rule:evenodd;clip-rule:evenodd;stroke-linejoin:round;stroke-miterlimit:2;"><rect id="Artboard2" x="0" y="0" width="2000" height="2000" style="fill:none;"/><clipPath id="_clip1"><rect x="0" y="0" width="2000" height="2000"/></clipPath><g clip-path="url(#_clip1)"><g><g><g><g><rect x="-0" y="-0" width="2000" height="2000" style="fill:#197ecf;"/><g><g><g><g><rect x="566.373" y="1252.02" width="58.67" height="269.822" style="fill:#fff;fill-rule:nonzero;"/><path d="M819.452,1526.55c41.263,-0 79.351,-17.661 105.934,-45.133l-42.453,-37.713c-15.87,18.075 -38.485,30.256 -63.481,30.256c-45.626,0 -84.508,-40.079 -84.508,-87.231c-0,-46.759 38.882,-86.839 84.508,-86.839c24.996,-0 47.611,12.182 63.481,30.257l42.453,-37.714c-26.583,-27.865 -64.671,-45.133 -105.934,-45.133c-78.16,0 -144.765,63.593 -144.765,139.429c-0,75.836 66.605,139.821 144.765,139.821Z" style="fill:#fff;fill-rule:nonzero;"/><path d="M1070.62,1526.55c66.662,-0 105.907,-34.142 105.907,-85.597c0,-49.903 -38.849,-67.192 -97.571,-80.158c-42.077,-9.431 -58.353,-15.718 -58.353,-35.364c0,-16.111 15.085,-29.077 40.093,-29.077c26.2,0 53.59,10.609 77.775,29.862l30.524,-41.635c-27.749,-23.546 -62.251,-37.281 -106.711,-37.281c-59.52,0 -100.747,34.142 -100.747,84.025c-0,52.26 40.831,68.37 98.365,81.337c41.681,9.43 57.559,15.324 57.559,34.578c-0,16.896 -15.084,30.256 -44.459,30.256c-34.535,-0 -63.895,-13.36 -89.662,-35.364l-33.706,39.681c31.724,29.04 73.748,44.737 120.986,44.737Z" style="fill:#fff;fill-rule:nonzero;"/><path d="M1327.72,1526.55c66.661,-0 105.907,-34.142 105.907,-85.597c-0,-49.903 -38.849,-67.192 -97.571,-80.158c-42.078,-9.431 -58.353,-15.718 -58.353,-35.364c-0,-16.111 15.084,-29.077 40.093,-29.077c26.199,0 53.589,10.609 77.774,29.862l30.525,-41.635c-27.75,-23.546 -62.252,-37.281 -106.712,-37.281c-59.519,0 -100.747,34.142 -100.747,84.025c-0,52.26 40.831,68.37 98.366,81.337c41.68,9.43 57.558,15.324 57.558,34.578c0,16.896 -15.084,30.256 -44.459,30.256c-34.535,-0 -63.895,-13.36 -89.662,-35.364l-33.706,39.681c31.724,29.04 73.748,44.737 120.987,44.737Z" style="fill:#fff;fill-rule:nonzero;"/></g><g><path d="M524.923,1125.65l-4.853,-15.936l-73.29,22.318l4.853,15.936l73.29,-22.318Z" style="fill:#fff;fill-rule:nonzero;"/><path d="M514.358,1092.73l-2.836,-16.301l-48.782,8.486l42.388,-45.237l-2.855,-16.412l-75.479,13.131l2.855,16.412l48.781,-8.486l-42.388,45.237l2.836,16.301l75.48,-13.131Z" style="fill:#fff;fill-rule:nonzero;"/><path d="M500.78,1004.88l0.176,-27.702c0.165,-26.032 -15.654,-44.595 -38.08,-44.737c-22.425,-0.142 -38.366,18.219 -38.532,44.251l-0.175,27.702l76.611,0.486Zm-14.827,-16.64l-46.747,-0.297l0.084,-13.298c0.094,-14.763 9.866,-25.181 23.478,-25.095c13.723,0.087 23.363,10.629 23.27,25.392l-0.085,13.298Z" style="fill:#fff;fill-rule:nonzero;"/><path d="M503.87,918.008l2.071,-16.53l-76.019,-9.523l-2.071,16.53l76.019,9.523Z" style="fill:#fff;fill-rule:nonzero;"/><path d="M521.334,829.286l4.536,-18.138l-81.975,12.009l-4.509,18.029l66.673,49.182l4.509,-18.029l-10.484,-7.73l8.362,-33.437l12.888,-1.886Zm-33.369,26.371l-24.372,-17.938l29.947,-4.353l-5.575,22.291Z" style="fill:#fff;fill-rule:nonzero;"/><path d="M561.457,737.047c5.431,-10.381 6,-22.288 2.586,-32.592l-15.075,5.718c2.459,6.372 2.547,13.665 -0.742,19.953c-6.005,11.48 -21.206,15.988 -33.069,9.782c-11.765,-6.153 -16.732,-21.211 -10.727,-32.69c3.29,-6.289 9.331,-10.376 15.967,-11.99l-3.902,-15.644c-10.509,3.021 -19.866,10.331 -25.296,20.713c-10.287,19.665 -3.053,44.791 16.028,54.772c19.08,9.98 43.944,1.643 54.23,-18.022Z" style="fill:#fff;fill-rule:nonzero;"/><path d="M578.737,678.135l-49.879,-36.475l-9.833,13.447l61.841,45.223l32.576,-44.546l-11.963,-8.749l-22.742,31.1Z" style="fill:#fff;fill-rule:nonzero;"/><path d="M648.883,619.896c15.875,-15.839 16.271,-41.898 1.062,-57.141c-15.209,-15.243 -41.191,-14.827 -57.066,1.012c-15.714,15.68 -16.349,41.82 -1.14,57.063c15.209,15.243 41.429,14.746 57.144,-0.934Zm-10.547,-10.57c-9.173,9.153 -25.029,8.897 -34.485,-0.58c-9.378,-9.399 -9.598,-25.255 -0.425,-34.408c9.254,-9.233 25.109,-8.977 34.487,0.422c9.456,9.477 9.677,25.333 0.423,34.566Z" style="fill:#fff;fill-rule:nonzero;"/><path d="M717.852,562.539c16.87,-11.661 20.704,-31.651 9.225,-48.257l-24.735,-35.784l-13.703,9.473l24.354,35.233c6.722,9.725 5.175,20.964 -3.632,27.052c-8.9,6.152 -19.96,3.628 -26.683,-6.098l-24.354,-35.233l-13.611,9.408l24.735,35.784c11.479,16.606 31.441,20.148 48.404,8.422Z" style="fill:#fff;fill-rule:nonzero;"/><path d="M761.231,532.793l25.214,-11.477c23.693,-10.785 33.894,-32.938 24.603,-53.349c-9.291,-20.411 -32.65,-27.165 -56.343,-16.38l-25.214,11.477l31.74,69.729Zm8.873,-20.445l-19.367,-42.548l12.103,-5.509c13.436,-6.117 26.997,-1.624 32.636,10.765c5.685,12.49 0.168,25.666 -13.269,31.783l-12.103,5.509Z" style="fill:#fff;fill-rule:nonzero;"/><path d="M901.62,484.513c18.538,-3.82 27.496,-15.564 24.547,-29.873c-2.86,-13.878 -14.655,-16.459 -31.728,-16.7c-12.242,-0.211 -17.129,-1.027 -18.254,-6.491c-0.924,-4.48 2.528,-8.95 9.483,-10.383c7.286,-1.502 15.511,-0.121 23.34,3.847l6.103,-13.328c-9.067,-4.958 -19.449,-6.8 -31.813,-4.252c-16.552,3.411 -26.061,15.268 -23.202,29.141c2.995,14.533 15.273,16.673 32.017,16.982c12.131,0.234 16.885,0.963 17.988,6.317c0.968,4.699 -2.461,9.279 -10.63,10.962c-9.604,1.979 -18.534,-0.053 -26.961,-4.696l-7.1,12.967c10.487,6.258 23.073,8.215 36.21,5.507Z" style="fill:#fff;fill-rule:nonzero;"/><path d="M1000.88,410.848l-0.763,-14.801l-59.5,3.068l3.944,76.511l59.501,-3.067l-0.763,-14.801l-42.864,2.209l-0.868,-16.833l38.814,-2.001l-0.763,-14.802l-38.814,2.002l-0.788,-15.275l42.864,-2.21Z" style="fill:#fff;fill-rule:nonzero;"/><path d="M1056.15,477.883c11.657,1.171 22.919,-2.737 31.209,-9.744l-10.923,-11.859c-4.996,4.656 -11.731,7.455 -18.793,6.745c-12.89,-1.295 -22.737,-13.722 -21.398,-27.043c1.327,-13.21 13.45,-23.43 26.34,-22.134c7.062,0.709 13.105,4.793 17.075,10.35l13.064,-9.45c-6.718,-8.627 -16.989,-14.586 -28.646,-15.758c-22.082,-2.219 -42.704,13.856 -44.857,35.281c-2.153,21.425 14.847,41.393 36.929,43.612Z" style="fill:#fff;fill-rule:nonzero;"/><path d="M1131.41,492.342c19.787,5.393 37.546,-4.551 42.855,-24.028l11.438,-41.969l-16.072,-4.381l-11.263,41.324c-3.109,11.407 -12.702,17.463 -23.032,14.647c-10.438,-2.844 -15.632,-12.931 -12.523,-24.338l11.263,-41.323l-15.964,-4.351l-11.438,41.969c-5.309,19.478 4.841,37.028 24.736,42.45Z" style="fill:#fff;fill-rule:nonzero;"/><path d="M1240.79,534.102l-5.906,-32.304c11.144,1.147 21.24,-3.976 26.059,-14.289c6.422,-13.746 -0.268,-28.679 -15.477,-35.785l-31.532,-14.732l-32.43,69.41l14.991,7.004l10.528,-22.535l11.13,5.2l5.503,30.025l17.134,8.006Zm-18.234,-76.477l14.909,6.965c7.454,3.483 10.764,9.711 7.977,15.677c-2.788,5.966 -9.689,7.423 -17.143,3.94l-14.908,-6.965l9.165,-19.617Z" style="fill:#fff;fill-rule:nonzero;"/><path d="M1251.53,541.388l14.238,8.648l39.772,-65.481l-14.239,-8.648l-39.771,65.481Z" style="fill:#fff;fill-rule:nonzero;"/><path d="M1296.34,570.954l13.235,10.117l37.529,-49.09l19.152,14.642l9.002,-11.774l-51.539,-39.401l-9.001,11.774l19.152,14.642l-37.53,49.09Z" style="fill:#fff;fill-rule:nonzero;"/><path d="M1354.35,621.154l11.619,12.095l19.945,-19.159l56.221,-12.142l-12.876,-13.405l-38.095,8.798l10.868,-37.142l-13.423,-13.974l-14.313,55.77l-19.946,19.159Z" style="fill:#fff;fill-rule:nonzero;"/><path d="M1426.29,715.63c9.868,16.152 23.95,20.607 36.418,12.989c12.091,-7.387 10.529,-19.359 4.977,-35.507c-3.944,-11.591 -4.83,-16.465 -0.07,-19.374c3.904,-2.385 9.278,-0.649 12.981,5.41c3.878,6.348 5.363,14.555 4.278,23.265l14.607,1.233c1.597,-10.21 -0.183,-20.603 -6.765,-31.375c-8.811,-14.421 -23.187,-19.356 -35.273,-11.972c-12.662,7.737 -10.521,20.015 -5.146,35.875c3.886,11.495 4.808,16.214 0.143,19.065c-4.094,2.501 -9.564,0.824 -13.912,-6.293c-5.113,-8.368 -6.222,-17.46 -4.705,-26.96l-14.604,-2.293c-2.34,11.986 0.078,24.492 7.071,35.937Z" style="fill:#fff;fill-rule:nonzero;"/><path d="M1461.38,785.676c7.725,18.998 26.408,27.076 45.109,19.471l40.295,-16.386l-6.275,-15.432l-39.676,16.134c-10.952,4.454 -21.588,0.506 -25.621,-9.411c-4.075,-10.022 0.787,-20.272 11.74,-24.726l39.675,-16.134l-6.232,-15.327l-40.296,16.386c-18.701,7.604 -26.487,26.323 -18.719,45.425Z" style="fill:#fff;fill-rule:nonzero;"/><path d="M1481.3,834.368l3.264,16.221l46.792,-9.414l-37.685,32.065l47.131,14.886l-46.793,9.414l3.286,16.331l75.108,-15.11l-3.285,-16.332l-47.131,-14.886l37.685,-32.065l-3.264,-16.221l-75.108,15.111Z" style="fill:#fff;fill-rule:nonzero;"/><path d="M1499,932.28l0.003,16.546l47.73,-0.009l-43.264,24.01l43.273,23.882l-47.729,0.009l0.003,16.659l76.613,-0.015l-0.003,-16.659l-43.274,-23.881l43.264,-24.011l-0.003,-16.546l-76.613,0.015Z" style="fill:#fff;fill-rule:nonzero;"/><path d="M1495.64,1031.18l-2.214,16.511l75.934,10.182l2.214,-16.511l-75.934,-10.182Z" style="fill:#fff;fill-rule:nonzero;"/><path d="M1486.51,1084.11l-3.979,16.176l60.005,14.758l-5.758,23.41l14.392,3.54l15.493,-62.998l-14.391,-3.539l-5.758,23.41l-60.004,-14.757Z" style="fill:#fff;fill-rule:nonzero;"/></g></g></g><g><path d="M886.024,1097.18c1.342,-0.518 33.078,46.532 31.126,47.427c-27.349,12.534 -57.603,19.496 -89.416,19.496c-122.159,0 -221.337,-102.665 -221.337,-229.121c-0,-114.012 80.62,-208.686 186.003,-226.196c-5.3,18.869 -8.308,38.749 -8.685,59.286c-70.936,19.988 -123.131,87.189 -123.131,166.91c-0,95.497 74.897,173.029 167.15,173.029c20.498,-0 40.139,-3.828 58.29,-10.831Z" style="fill:#fb0;stroke:#fb0;stroke-width:1px;"/><path d="M958.982,996.801c-100.118,-21.945 -175.324,-114.023 -175.324,-224.14c0,-126.456 99.178,-229.122 221.338,-229.122c101.466,0 187.077,70.829 213.165,167.304c-14.832,-3.267 -30.231,-4.981 -46.015,-4.981c-4.3,0 -8.571,0.127 -12.794,0.391c-25.153,-62.578 -84.825,-106.621 -154.356,-106.621c-92.253,-0 -167.151,77.531 -167.151,173.029c0,75.872 47.278,140.404 112.98,163.67c0.117,20.941 2.952,41.219 8.157,60.47Z" style="fill:#f65314;stroke:#f65314;stroke-width:1px;"/><path d="M1010.5,890.813c-1.58,6.204 -57.546,11.306 -56.295,4c17.642,-103.092 101.975,-182.465 205.146,-188.56l0.396,-0.024c4.094,-0.248 8.233,-0.367 12.398,-0.367c15.784,0 31.183,1.714 46.015,4.981l0.293,0.065c99.974,22.064 175.03,114.068 175.03,224.075c0,126.456 -99.178,229.121 -221.338,229.121c-60.404,0 -148.637,-66.349 -168.253,-81.997c-1.031,-0.823 -1.228,-6.822 -0.583,-7.69c8.009,-10.778 49.461,-18.342 51.908,-15.858c30.137,30.587 71.421,49.453 116.928,49.453c92.253,-0 167.151,-77.532 167.151,-173.029c0,-75.872 -47.278,-140.404 -112.98,-163.671l-0.398,-0.142c-16.874,-5.992 -34.962,-9.215 -53.773,-9.215l-0.349,0.009c-77.359,0.161 -142.445,54.834 -161.296,128.849Zm-38.147,130.859l-0.116,0.205l0.116,-0.205l0.223,-0.397l-0.223,0.397Zm1.103,-1.991c-0.073,0.133 -0.146,0.266 -0.219,0.4c0.073,-0.134 0.146,-0.267 0.219,-0.4Zm1.29,-2.412c-0.071,0.134 -0.141,0.269 -0.212,0.403c0.071,-0.134 0.141,-0.269 0.212,-0.403Zm0.631,-1.215c2.507,-4.873 2.449,-4.728 -0.209,0.405l0.209,-0.405Zm23.718,-14.352c-0,-0 -0,-0 -0,-0Zm0.147,-56.114c0.882,0.031 1.766,0.055 2.652,0.072c-0.885,-0.017 -1.768,-0.041 -2.652,-0.072Zm-7.45,-0.433l0.436,0.035l-0.436,-0.035l-0.435,-0.035l0.435,0.035Zm-3.041,-0.275c0.822,0.082 1.645,0.158 2.471,0.228c-0.826,-0.07 -1.65,-0.146 -2.471,-0.228Zm-3.026,-0.333c0.939,0.112 1.88,0.216 2.823,0.312c-0.944,-0.096 -1.885,-0.2 -2.823,-0.312Zm-8.937,-1.323c2.953,0.523 5.933,0.965 8.937,1.323c-3.004,-0.358 -5.983,-0.8 -8.937,-1.323Zm-4.08,-0.777c1.2,0.245 2.405,0.476 3.615,0.694c-1.209,-0.217 -2.414,-0.449 -3.615,-0.694Zm-1.021,-0.211c0.14,0.029 0.28,0.058 0.42,0.088c-0.14,-0.03 -0.28,-0.059 -0.42,-0.088Z" style="fill:#7cbb00;stroke:#7cbb00;stroke-width:1px;"/></g></g></g><g><g><path d="M848.052,943.491c45.377,-27.697 98.255,-43.588 154.691,-43.588c56.436,0 109.314,15.891 154.69,43.588c-2.395,114.824 -64.132,214.639 -154.69,267.865c-90.571,-53.249 -152.294,-153.056 -154.691,-267.865Z" style="fill:#fff;"/><clipPath id="_clip2"><path d="M848.052,943.491c45.377,-27.697 98.255,-43.588 154.691,-43.588c56.436,0 109.314,15.891 154.69,43.588c-2.395,114.824 -64.132,214.639 -154.69,267.865c-90.571,-53.249 -152.294,-153.056 -154.691,-267.865Z"/></clipPath><g clip-path="url(#_clip2)"><g><rect x="848.052" y="899.903" width="154.691" height="155.726" style="fill:#f65314;"/><rect x="1006.53" y="899.903" width="150.904" height="155.726" style="fill:#7cbb00;"/><rect x="1006.53" y="1055.63" width="150.904" height="155.726" style="fill:#fb0;"/><path d="M1002.74,1055.63l-154.691,-0l0,155.726l154.691,-0.991l-0,-154.735Z" style="fill:#00a1f1;"/></g></g></g><path d="M843.248,935.059c-2.947,1.799 -4.725,5.104 -4.652,8.643c2.471,118.366 66.099,221.268 159.475,276.165c2.897,1.703 6.446,1.704 9.342,0.001c93.363,-54.875 157.006,-157.786 159.476,-276.166c0.074,-3.54 -1.705,-6.844 -4.651,-8.643c-46.786,-28.557 -101.306,-44.944 -159.495,-44.944c-58.189,-0 -112.709,16.387 -159.495,44.944Zm4.804,8.432c45.377,-27.697 98.255,-43.588 154.691,-43.588c56.436,0 109.314,15.891 154.69,43.588c-2.395,114.824 -64.132,214.639 -154.69,267.865c-90.571,-53.249 -152.294,-153.056 -154.691,-267.865Z" style="fill:#fff;"/></g></g></g><g><path d="M1007.01,1055.63l-143.333,-0c0,2.358 -1.241,4.27 1.118,4.27l137.945,-0c2.358,-0 4.27,-1.912 4.27,-4.27Z" style="fill:#fff;"/><path d="M1142.43,1055.63l-143.333,-0c0,2.358 -1.241,4.27 1.118,4.27l137.945,-0c2.358,-0 4.27,-1.912 4.27,-4.27Z" style="fill:#fff;"/><g><path d="M1000,217.863c-431.673,-0 -782.137,350.464 -782.137,782.137c-0,431.673 350.464,782.137 782.137,782.137c431.673,0 782.137,-350.464 782.137,-782.137c0,-431.673 -350.464,-782.137 -782.137,-782.137Zm0,35.585c412.033,0 746.552,334.519 746.552,746.552c-0,412.033 -334.519,746.552 -746.552,746.552c-412.033,-0 -746.552,-334.519 -746.552,-746.552c0,-412.033 334.519,-746.552 746.552,-746.552Z" style="fill:#fff;"/></g></g></g></g></svg>