<?xml version="1.0" encoding="UTF-8" standalone="no"?><!DOCTYPE svg PUBLIC "-//W3C//DTD SVG 1.1//EN" "http://www.w3.org/Graphics/SVG/1.1/DTD/svg11.dtd"><svg width="100%" height="100%" viewBox="0 0 2000 971" version="1.1" xmlns="http://www.w3.org/2000/svg" xmlns:xlink="http://www.w3.org/1999/xlink" xml:space="preserve" xmlns:serif="http://www.serif.com/" style="fill-rule:evenodd;clip-rule:evenodd;stroke-linejoin:round;stroke-miterlimit:2;"><rect id="Artboard2" x="0" y="0" width="2000" height="970.867" style="fill:none;"/><clipPath id="_clip1"><rect x="0" y="0" width="2000" height="970.867"/></clipPath><g clip-path="url(#_clip1)"><g><g><rect x="-0" y="0.132" width="2000" height="970.603" style="fill:#197ecf;"/><g><g><g><path d="M427.426,695.553c1.313,-0.506 32.351,45.51 30.442,46.385c-26.749,12.259 -56.338,19.068 -87.451,19.068c-119.477,0 -216.476,-100.41 -216.476,-224.088c-0,-111.508 78.849,-204.102 181.917,-221.228c-5.184,18.455 -8.125,37.898 -8.494,57.984c-69.377,19.55 -120.426,85.274 -120.426,163.244c-0,93.399 73.252,169.228 163.479,169.228c20.047,-0 39.256,-3.744 57.009,-10.593Z" style="fill:#fb0;"/><path d="M498.781,597.378c-97.918,-21.463 -171.472,-111.518 -171.472,-219.217c-0,-123.678 96.999,-224.088 216.475,-224.088c99.237,-0 182.967,69.273 208.482,163.629c-14.505,-3.196 -29.567,-4.872 -45.003,-4.872c-4.205,-0 -8.383,0.124 -12.514,0.382c-24.6,-61.203 -82.961,-104.279 -150.965,-104.279c-90.226,0 -163.479,75.829 -163.479,169.228c0,74.206 46.24,137.32 110.499,160.075c0.113,20.481 2.886,40.314 7.977,59.142Z" style="fill:#f65314;"/><path d="M549.168,493.718c-1.545,6.068 -56.281,11.057 -55.058,3.912c17.255,-100.828 99.735,-178.457 200.639,-184.418l0.388,-0.023c4.004,-0.242 8.052,-0.359 12.126,-0.359c15.436,-0 30.498,1.676 45.003,4.872l0.287,0.063c97.779,21.58 171.186,111.562 171.186,219.153c-0,123.678 -97,224.088 -216.476,224.088c-59.078,0 -145.372,-64.892 -164.558,-80.196c-1.008,-0.805 -1.2,-6.672 -0.57,-7.521c7.833,-10.542 48.375,-17.939 50.768,-15.51c29.475,29.915 69.852,48.367 114.36,48.367c90.227,-0 163.479,-75.829 163.479,-169.228c-0,-74.206 -46.239,-137.32 -110.498,-160.075l-0.39,-0.139c-16.503,-5.861 -34.194,-9.014 -52.591,-9.014l-0.342,0.009c-75.659,0.158 -139.315,53.63 -157.753,126.019Zm-37.309,127.985l-0.113,0.201l0.113,-0.201l0.218,-0.388l-0.218,0.388Zm1.079,-1.948c-0.071,0.131 -0.142,0.261 -0.214,0.391c0.072,-0.13 0.143,-0.26 0.214,-0.391Zm1.262,-2.359c-0.069,0.132 -0.139,0.263 -0.208,0.395c0.069,-0.132 0.139,-0.263 0.208,-0.395Zm0.617,-1.188c2.452,-4.766 2.396,-4.625 -0.204,0.396l0.204,-0.396Zm23.197,-14.037c-0,-0 -0,-0 -0,-0Zm0.144,-54.881c0.862,0.03 1.727,0.054 2.594,0.07c-0.866,-0.016 -1.73,-0.039 -2.594,-0.07Zm-7.286,-0.423l0.426,0.034l-0.426,-0.034l-0.426,-0.035l0.426,0.035Zm-2.975,-0.27c0.804,0.081 1.609,0.155 2.417,0.224c-0.808,-0.069 -1.614,-0.144 -2.417,-0.224Zm-2.96,-0.325c0.919,0.11 1.839,0.211 2.762,0.305c-0.923,-0.094 -1.844,-0.196 -2.762,-0.305Zm-8.74,-1.294c2.888,0.511 5.802,0.943 8.74,1.294c-2.937,-0.351 -5.851,-0.783 -8.74,-1.294Zm-3.99,-0.76c1.173,0.24 2.352,0.466 3.535,0.679c-1.183,-0.213 -2.361,-0.439 -3.535,-0.679Zm-0.999,-0.207c0.137,0.029 0.274,0.058 0.411,0.086c-0.137,-0.028 -0.274,-0.057 -0.411,-0.086Z" style="fill:#7cbb00;"/></g><g><g><path d="M390.496,546.411c45.376,-27.696 98.255,-43.587 154.69,-43.587c56.436,-0 109.314,15.891 154.691,43.587c-2.396,114.824 -64.132,214.64 -154.691,267.866c-90.571,-53.249 -152.294,-153.056 -154.69,-267.866Z" style="fill:#fff;"/><clipPath id="_clip2"><path d="M390.496,546.411c45.376,-27.696 98.255,-43.587 154.69,-43.587c56.436,-0 109.314,15.891 154.691,43.587c-2.396,114.824 -64.132,214.64 -154.691,267.866c-90.571,-53.249 -152.294,-153.056 -154.69,-267.866Z"/></clipPath><g clip-path="url(#_clip2)"><g><rect x="390.496" y="502.824" width="154.691" height="155.726" style="fill:#f65314;"/><rect x="548.973" y="502.824" width="150.904" height="155.726" style="fill:#7cbb00;"/><rect x="548.973" y="658.55" width="150.904" height="155.726" style="fill:#fb0;"/><path d="M545.186,658.55l-154.69,0l-0,155.727l154.69,-0.991l0,-154.736Z" style="fill:#00a1f1;"/></g></g></g><path d="M684.877,658.55l-143.333,0c-0,2.359 -1.241,4.27 1.117,4.27l137.945,0c2.359,0 4.271,-1.911 4.271,-4.27Z" style="fill:#fff;"/><path d="M549.457,658.55l-143.333,0c-0,2.359 -1.241,4.27 1.117,4.27l137.945,0c2.359,0 4.271,-1.911 4.271,-4.27Z" style="fill:#fff;"/><path d="M385.691,537.98c-2.946,1.798 -4.725,5.103 -4.651,8.643c2.471,118.365 66.099,221.267 159.475,276.165c2.896,1.703 6.445,1.703 9.342,0c93.363,-54.874 157.006,-157.785 159.476,-276.166c0.074,-3.539 -1.705,-6.844 -4.651,-8.642c-46.787,-28.557 -101.307,-44.945 -159.496,-44.945c-58.189,0 -112.708,16.388 -159.495,44.945Zm4.805,8.431c45.376,-27.696 98.255,-43.587 154.69,-43.587c56.436,-0 109.314,15.891 154.691,43.587c-2.396,114.824 -64.132,214.64 -154.691,267.866c-90.571,-53.249 -152.294,-153.056 -154.69,-267.866Z" style="fill:#fff;"/></g></g><g><rect x="1033.55" y="192.602" width="13.19" height="60.663" style="fill:#fff;fill-rule:nonzero;"/><path d="M1058.61,253.265l13.102,0l-0,-39.205l29.536,39.205l13.191,0l-0,-60.663l-13.191,0l0,39.206l-29.536,-39.206l-13.102,0l0,60.663Z" style="fill:#fff;fill-rule:nonzero;"/><path d="M1126.76,253.265l21.936,0c20.612,0 35.23,-12.618 35.23,-30.376c0,-17.757 -14.618,-30.287 -35.23,-30.287l-21.936,0l0,60.663Zm13.102,-11.823l-0,-37.016l10.529,-0c11.69,-0 19.988,7.686 19.988,18.463c0,10.867 -8.298,18.553 -19.988,18.553l-10.529,-0Z" style="fill:#fff;fill-rule:nonzero;"/><rect x="1193.39" y="192.602" width="13.19" height="60.663" style="fill:#fff;fill-rule:nonzero;"/><path d="M1262.87,253.265l14.805,0l-24.972,-60.663l-14.715,0l-24.972,60.663l14.715,0l3.925,-9.538l27.29,-0l3.924,9.538Zm-26.666,-20.567l9.097,-22.167l9.097,22.167l-18.194,0Z" style="fill:#fff;fill-rule:nonzero;"/><path d="M1338.15,254.325c9.277,-0 17.84,-3.971 23.817,-10.147l-9.545,-8.479c-3.568,4.064 -8.652,6.803 -14.272,6.803c-10.258,-0 -18.999,-9.011 -18.999,-19.612c-0,-10.513 8.741,-19.524 18.999,-19.524c5.62,0 10.704,2.739 14.272,6.803l9.545,-8.479c-5.977,-6.265 -14.54,-10.147 -23.817,-10.147c-17.572,-0 -32.546,14.297 -32.546,31.347c-0,17.05 14.974,31.435 32.546,31.435Z" style="fill:#fff;fill-rule:nonzero;"/><path d="M1381.95,241.53l-0,-48.928l-13.191,0l0,60.663l43.697,0l0,-11.735l-30.506,0Z" style="fill:#fff;fill-rule:nonzero;"/><path d="M1450.19,254.325c17.756,-0 32.553,-14.385 32.553,-31.435c-0,-17.05 -14.797,-31.347 -32.553,-31.347c-17.577,-0 -32.552,14.297 -32.552,31.347c-0,17.05 14.975,31.435 32.552,31.435Zm0,-11.823c-10.261,-0 -19.005,-9.011 -19.005,-19.612c0,-10.513 8.744,-19.524 19.005,-19.524c10.351,0 19.095,9.011 19.095,19.524c-0,10.601 -8.744,19.612 -19.095,19.612Z" style="fill:#fff;fill-rule:nonzero;"/><path d="M1519.24,254.325c16.239,-0 27.736,-11.294 27.736,-27.279l-0,-34.444l-13.19,0l-0,33.914c-0,9.362 -6.068,15.986 -14.546,15.986c-8.566,-0 -14.634,-6.624 -14.634,-15.986l-0,-33.914l-13.101,0l-0,34.444c-0,15.985 11.408,27.279 27.735,27.279Z" style="fill:#fff;fill-rule:nonzero;"/><path d="M1558.58,253.265l21.935,0c20.613,0 35.231,-12.618 35.231,-30.376c0,-17.757 -14.618,-30.287 -35.231,-30.287l-21.935,0l0,60.663Zm13.101,-11.823l0,-37.016l10.53,-0c11.689,-0 19.988,7.686 19.988,18.463c0,10.867 -8.299,18.553 -19.988,18.553l-10.53,-0Z" style="fill:#fff;fill-rule:nonzero;"/><path d="M1056.55,374.395c14.988,0 23.811,-7.676 23.811,-19.244c0,-11.219 -8.734,-15.106 -21.936,-18.022c-9.46,-2.12 -13.12,-3.533 -13.12,-7.95c0,-3.622 3.392,-6.537 9.014,-6.537c5.891,-0 12.049,2.385 17.486,6.713l6.863,-9.36c-6.239,-5.294 -13.996,-8.382 -23.992,-8.382c-13.381,-0 -22.65,7.676 -22.65,18.891c-0,11.749 9.18,15.371 22.115,18.286c9.371,2.121 12.94,3.446 12.94,7.774c0,3.799 -3.391,6.803 -9.995,6.803c-7.764,-0 -14.365,-3.004 -20.158,-7.951l-7.578,8.921c7.132,6.529 16.58,10.058 27.2,10.058Z" style="fill:#fff;fill-rule:nonzero;"/><path d="M1136.12,324.408l0,-11.735l-47.176,-0l0,60.662l47.176,0l0,-11.735l-33.985,0l-0,-13.347l30.774,0l-0,-11.735l-30.774,0l-0,-12.11l33.985,-0Z" style="fill:#fff;fill-rule:nonzero;"/><path d="M1175.36,374.395c9.277,0 17.84,-3.97 23.817,-10.147l-9.545,-8.478c-3.568,4.063 -8.652,6.802 -14.272,6.802c-10.258,-0 -18.999,-9.011 -18.999,-19.612c-0,-10.513 8.741,-19.524 18.999,-19.524c5.62,0 10.704,2.739 14.272,6.803l9.545,-8.479c-5.977,-6.265 -14.54,-10.147 -23.817,-10.147c-17.572,-0 -32.547,14.297 -32.547,31.347c0,17.05 14.975,31.435 32.547,31.435Z" style="fill:#fff;fill-rule:nonzero;"/><path d="M1234.06,374.395c16.239,0 27.736,-11.294 27.736,-27.279l0,-34.443l-13.19,-0l-0,33.913c-0,9.362 -6.068,15.986 -14.546,15.986c-8.566,-0 -14.634,-6.624 -14.634,-15.986l0,-33.913l-13.101,-0l-0,34.443c-0,15.985 11.408,27.279 27.735,27.279Z" style="fill:#fff;fill-rule:nonzero;"/><path d="M1324.68,373.335l-15.064,-21.194c8.379,-2.912 13.905,-9.971 13.905,-18.984c-0,-12.014 -9.804,-20.484 -23.097,-20.484l-27.558,-0l0,60.662l13.101,0l0,-19.694l9.728,-0l14.01,19.694l14.975,0Zm-38.713,-48.751l13.03,0c6.514,0 10.976,3.359 10.976,8.573c0,5.214 -4.462,8.572 -10.976,8.572l-13.03,0l0,-17.145Z" style="fill:#fff;fill-rule:nonzero;"/><rect x="1332.63" y="312.673" width="13.19" height="60.663" style="fill:#fff;fill-rule:nonzero;"/><path d="M1373.04,373.335l13.19,0l0,-48.927l19.089,-0l0,-11.735l-51.368,-0l0,11.735l19.089,-0l-0,48.927Z" style="fill:#fff;fill-rule:nonzero;"/><path d="M1431.56,373.335l13.28,0l-0,-21.898l23.905,-38.764l-14.718,-0l-15.872,26.578l-15.247,-26.578l-15.343,-0l23.995,38.764l0,21.898Z" style="fill:#fff;fill-rule:nonzero;"/><path d="M1521.47,374.395c14.987,0 23.81,-7.676 23.81,-19.244c0,-11.219 -8.734,-15.106 -21.936,-18.022c-9.46,-2.12 -13.119,-3.533 -13.119,-7.95c-0,-3.622 3.391,-6.537 9.013,-6.537c5.891,-0 12.049,2.385 17.486,6.713l6.863,-9.36c-6.239,-5.294 -13.996,-8.382 -23.992,-8.382c-13.381,-0 -22.65,7.676 -22.65,18.891c-0,11.749 9.18,15.371 22.115,18.286c9.371,2.121 12.941,3.446 12.941,7.774c-0,3.799 -3.392,6.803 -9.996,6.803c-7.764,-0 -14.365,-3.004 -20.158,-7.951l-7.578,8.921c7.132,6.529 16.58,10.058 27.201,10.058Z" style="fill:#fff;fill-rule:nonzero;"/><path d="M1581.5,374.395c16.239,0 27.736,-11.294 27.736,-27.279l-0,-34.443l-13.191,-0l0,33.913c0,9.362 -6.068,15.986 -14.545,15.986c-8.566,-0 -14.634,-6.624 -14.634,-15.986l-0,-33.913l-13.102,-0l0,34.443c0,15.985 11.408,27.279 27.736,27.279Z" style="fill:#fff;fill-rule:nonzero;"/><path d="M1620.84,373.335l13.101,0l0,-37.792l19.005,34.26l18.916,-34.26l0,37.792l13.191,0l-0,-60.662l-13.191,-0l-18.916,34.261l-19.005,-34.261l-13.101,-0l-0,60.662Z" style="fill:#fff;fill-rule:nonzero;"/><path d="M1697.28,373.335l13.102,0l-0,-37.792l19.005,34.26l18.916,-34.26l-0,37.792l13.19,0l0,-60.662l-13.19,-0l-18.916,34.261l-19.005,-34.261l-13.102,-0l0,60.662Z" style="fill:#fff;fill-rule:nonzero;"/><rect x="1773.37" y="312.673" width="13.19" height="60.663" style="fill:#fff;fill-rule:nonzero;"/><path d="M1813.78,373.335l13.19,0l0,-48.927l19.089,-0l0,-11.735l-51.368,-0l-0,11.735l19.089,-0l-0,48.927Z" style="fill:#fff;fill-rule:nonzero;"/></g><g><rect x="1014.57" y="480.492" width="56.251" height="258.696" style="fill:#fff;fill-rule:nonzero;stroke:#fff;stroke-width:1px;"/><path d="M1257.21,743.707c39.561,0 76.078,-16.932 101.565,-43.272l-40.702,-36.157c-15.216,17.33 -36.899,29.008 -60.863,29.008c-43.746,0 -81.024,-38.426 -81.024,-83.634c-0,-44.831 37.278,-83.259 81.024,-83.259c23.964,0 45.647,11.68 60.863,29.01l40.702,-36.159c-25.487,-26.716 -62.004,-43.272 -101.565,-43.272c-74.938,0 -138.797,60.971 -138.797,133.68c0,72.709 63.859,134.055 138.797,134.055Z" style="fill:#fff;fill-rule:nonzero;stroke:#fff;stroke-width:1px;"/><path d="M1498.02,743.707c63.913,0 101.54,-32.733 101.54,-82.067c-0,-47.845 -37.247,-64.421 -93.548,-76.853c-40.343,-9.042 -55.947,-15.069 -55.947,-33.906c0,-15.446 14.463,-27.877 38.44,-27.877c25.119,-0 51.38,10.171 74.568,28.631l29.266,-39.919c-26.606,-22.575 -59.686,-35.744 -102.312,-35.744c-57.065,0 -96.593,32.734 -96.593,80.56c0,50.105 39.148,65.551 94.31,77.983c39.962,9.042 55.185,14.693 55.185,33.153c-0,16.199 -14.462,29.008 -42.626,29.008c-33.111,-0 -61.26,-12.809 -85.965,-33.906l-32.316,38.045c30.416,27.842 70.707,42.892 115.998,42.892Z" style="fill:#fff;fill-rule:nonzero;stroke:#fff;stroke-width:1px;"/><path d="M1744.52,743.707c63.913,0 101.54,-32.733 101.54,-82.067c0,-47.845 -37.247,-64.421 -93.548,-76.853c-40.342,-9.042 -55.947,-15.069 -55.947,-33.906c0,-15.446 14.463,-27.877 38.44,-27.877c25.119,-0 51.38,10.171 74.568,28.631l29.266,-39.919c-26.606,-22.575 -59.685,-35.744 -102.312,-35.744c-57.065,0 -96.593,32.734 -96.593,80.56c0,50.105 39.148,65.551 94.31,77.983c39.962,9.042 55.185,14.693 55.185,33.153c-0,16.199 -14.462,29.008 -42.626,29.008c-33.111,-0 -61.26,-12.809 -85.965,-33.906l-32.316,38.045c30.416,27.842 70.707,42.892 115.998,42.892Z" style="fill:#fff;fill-rule:nonzero;stroke:#fff;stroke-width:1px;"/></g></g></g></g></g></svg>