<?xml version="1.0" encoding="UTF-8" standalone="no"?><!DOCTYPE svg PUBLIC "-//W3C//DTD SVG 1.1//EN" "http://www.w3.org/Graphics/SVG/1.1/DTD/svg11.dtd"><svg width="100%" height="100%" viewBox="0 0 2000 2000" version="1.1" xmlns="http://www.w3.org/2000/svg" xmlns:xlink="http://www.w3.org/1999/xlink" xml:space="preserve" xmlns:serif="http://www.serif.com/" style="fill-rule:evenodd;clip-rule:evenodd;stroke-linejoin:round;stroke-miterlimit:2;"><rect id="Artboard2" x="0" y="0" width="2000" height="2000" style="fill:none;"/><g><path d="M716.961,1533.8c3.334,-1.287 82.186,115.615 77.334,117.838c-67.952,31.142 -143.121,48.441 -222.163,48.441c-303.522,0 -549.942,-255.086 -549.942,-569.281c-0,-283.278 200.311,-518.508 462.149,-562.015c-13.17,46.883 -20.642,96.278 -21.58,147.305c-176.248,49.663 -305.935,216.633 -305.935,414.71c0,237.275 186.093,429.912 415.308,429.912c50.929,-0 99.729,-9.51 144.829,-26.91Z" style="fill:#fb0;"/><path d="M898.233,1284.39c-248.755,-54.525 -435.614,-283.304 -435.614,-556.905c0,-314.195 246.421,-569.281 549.942,-569.281c252.105,-0 464.816,175.983 529.635,415.688c-36.851,-8.118 -75.113,-12.376 -114.328,-12.376c-10.684,-0 -21.297,0.316 -31.79,0.971c-62.495,-155.484 -210.758,-264.914 -383.517,-264.914c-229.214,0 -415.307,192.637 -415.307,429.912c-0,188.515 117.467,348.853 280.713,406.661c0.289,52.03 7.334,102.414 20.266,150.244Z" style="fill:#f65314;"/><path d="M1026.24,1021.05c-3.926,15.413 -142.979,28.089 -139.873,9.937c43.835,-256.146 253.372,-453.357 509.712,-468.501l0.984,-0.06c10.172,-0.615 20.456,-0.911 30.806,-0.911c39.215,-0 77.477,4.258 114.328,12.376l0.729,0.16c248.4,54.822 434.885,283.418 434.885,556.745c0,314.195 -246.42,569.281 -549.942,569.281c-150.083,0 -369.309,-164.854 -418.048,-203.733c-2.561,-2.044 -3.05,-16.95 -1.448,-19.107c19.899,-26.78 122.892,-45.573 128.973,-39.402c74.878,75.997 177.454,122.873 290.523,122.873c229.215,-0 415.308,-192.637 415.308,-429.912c-0,-188.515 -117.468,-348.853 -280.714,-406.661l-0.99,-0.353c-41.924,-14.889 -86.868,-22.898 -133.604,-22.898l-0.869,0.023c-192.207,0.401 -353.922,136.242 -400.76,320.143Zm-94.781,325.136l-0.288,0.51l0.288,-0.51l0.553,-0.986l-0.553,0.986Zm2.74,-4.948c-0.181,0.331 -0.362,0.662 -0.543,0.993c0.181,-0.331 0.362,-0.662 0.543,-0.993Zm3.206,-5.993c-0.176,0.334 -0.352,0.669 -0.528,1.003c0.176,-0.334 0.352,-0.669 0.528,-1.003Zm1.568,-3.019c6.229,-12.107 6.085,-11.748 -0.52,1.008l0.52,-1.008Zm58.929,-35.66c0,0 0,0 0,0Zm0.366,-139.421c2.191,0.077 4.388,0.137 6.59,0.178c-2.199,-0.041 -4.394,-0.1 -6.59,-0.178Zm-18.509,-1.075l1.082,0.087l-1.082,-0.087l-1.082,-0.089l1.082,0.089Zm-7.558,-0.685c2.042,0.204 4.089,0.394 6.142,0.567c-2.053,-0.174 -4.102,-0.363 -6.142,-0.567Zm-7.518,-0.826c2.332,0.278 4.671,0.537 7.015,0.774c-2.345,-0.238 -4.685,-0.496 -7.015,-0.774Zm-22.205,-3.287c7.337,1.298 14.741,2.396 22.205,3.287c-7.463,-0.891 -14.866,-1.989 -22.205,-3.287Zm-10.137,-1.931c2.982,0.608 5.976,1.183 8.982,1.725c-3.005,-0.541 -5.999,-1.116 -8.982,-1.725Zm-2.536,-0.525c0.347,0.072 0.695,0.145 1.042,0.218c-0.347,-0.073 -0.695,-0.146 -1.042,-0.218Z" style="fill:#7cbb00;"/><g><g><g><g><path d="M622.614,1151.93c112.744,-68.816 244.127,-108.299 384.349,-108.299c140.222,0 271.605,39.483 384.349,108.299c-5.953,285.295 -159.346,533.3 -384.349,665.546c-225.036,-132.303 -378.395,-380.286 -384.349,-665.546Z" style="fill:#fff;"/><clipPath id="_clip1"><path d="M622.614,1151.93c112.744,-68.816 244.127,-108.299 384.349,-108.299c140.222,0 271.605,39.483 384.349,108.299c-5.953,285.295 -159.346,533.3 -384.349,665.546c-225.036,-132.303 -378.395,-380.286 -384.349,-665.546Z"/></clipPath><g clip-path="url(#_clip1)"><g><rect x="622.614" y="1043.63" width="384.349" height="386.923" style="fill:#f65314;"/><rect x="1016.37" y="1043.63" width="374.94" height="386.923" style="fill:#7cbb00;"/><rect x="1016.37" y="1430.56" width="374.94" height="386.923" style="fill:#fb0;"/><rect x="622.614" y="1430.56" width="384.349" height="384.461" style="fill:#00a1f1;"/></g></g></g><rect x="670.461" y="1425.84" width="673.256" height="9.442" style="fill:#fff;"/><path d="M610.676,1130.98c-7.321,4.469 -11.74,12.68 -11.556,21.475c6.138,294.094 164.231,549.768 396.236,686.168c7.197,4.232 16.014,4.232 23.211,0.002c231.973,-136.343 390.102,-392.039 396.239,-686.17c0.183,-8.795 -4.236,-17.006 -11.557,-21.475c-116.246,-70.953 -251.708,-111.67 -396.286,-111.67c-144.578,-0 -280.04,40.717 -396.287,111.67Zm11.938,20.95c112.744,-68.816 244.127,-108.299 384.349,-108.299c140.222,0 271.605,39.483 384.349,108.299c-5.953,285.295 -159.346,533.3 -384.349,665.546c-225.036,-132.303 -378.395,-380.286 -384.349,-665.546Z" style="fill:#fff;"/></g></g></g></g></svg>