<svg width="128" height="80" viewBox="0 0 128 80" fill="none" xmlns="http://www.w3.org/2000/svg">
<mask id="mask0_1_20" style="mask-type:luminance" maskUnits="userSpaceOnUse" x="39" y="0" width="56" height="36">
<path d="M39.3234 0.0677643H94.9771V35.2408H39.3234V0.0677643Z" fill="white"/>
</mask>
<g mask="url(#mask0_1_20)">
<path d="M59.4097 66.9808C61.4392 64.2893 63.5787 61.6447 65.6942 59.0606C64.2116 57.131 62.7623 55.1964 61.3718 53.2464C59.4909 50.5956 57.713 47.922 56.1527 45.2188C55.3705 43.8693 54.6461 42.5112 53.9898 41.1515C53.3287 39.7939 52.7388 38.4327 52.2398 37.0754C51.2459 34.3667 50.6048 31.6732 50.4673 29.107C50.4029 27.8221 50.4515 26.551 50.6182 25.2956C50.7848 24.0412 51.0839 22.8133 51.4791 21.622C52.2822 19.2431 53.5346 17.03 55.1236 15.1309C56.7053 13.2242 58.6168 11.6258 60.7031 10.4167C61.7465 9.81273 62.8349 9.30688 63.9478 8.8978C64.503 8.69068 65.0669 8.51912 65.6298 8.34512C65.9155 8.27237 66.1992 8.19908 66.4824 8.12633C66.7661 8.0525 67.0545 8.0073 67.3393 7.94419C67.6347 7.877 67.8888 7.84293 68.1495 7.80018L68.5407 7.73449L68.6413 7.71766L68.7686 7.70653L69.0222 7.68359L69.5288 7.6388L69.7813 7.61641L69.9065 7.60528C69.7373 7.60568 69.8913 7.60419 69.8668 7.60324L69.921 7.60066C70.2082 7.58695 70.4945 7.5727 70.7782 7.55845C71.9182 7.53701 73.0455 7.56714 74.1493 7.69024C75.2483 7.82706 76.3219 8.03824 77.3613 8.31404C78.3929 8.6087 79.3949 8.95073 80.355 9.34909C82.2583 10.175 83.9806 11.2157 85.4794 12.38C86.9865 13.5396 88.2558 14.8318 89.3238 16.1308C90.3882 17.4346 91.2379 18.7561 91.9198 20.0089C93.2669 22.5284 93.936 24.7603 94.2934 26.2975C94.3767 26.6849 94.4504 27.0268 94.5138 27.3224C94.5747 27.6211 94.6094 27.8782 94.6461 28.0816C94.7142 28.4918 94.7489 28.703 94.7489 28.703C94.7489 28.703 94.7734 28.4903 94.8205 28.0781C94.8424 27.871 94.8793 27.6161 94.9033 27.3092C94.9237 27.0023 94.9437 26.6436 94.9632 26.234C94.9734 25.8264 94.9662 25.3735 94.9677 24.8676C94.9545 24.6168 94.9396 24.3536 94.9248 24.0799C94.909 23.8041 94.8942 23.5172 94.8558 23.2214C94.753 22.0286 94.5056 20.6634 94.088 19.1556C93.6718 17.6463 93.0522 16.0031 92.1575 14.3004C91.7174 13.4456 91.1975 12.5836 90.6095 11.7138C90.0037 10.8605 89.3468 9.98415 88.5861 9.1436C87.8403 8.28961 86.9987 7.46222 86.0771 6.66741C85.1527 5.873 84.1349 5.12854 83.048 4.41408C81.9469 3.72405 80.7732 3.06618 79.5104 2.50631C78.2451 1.95621 76.9067 1.47588 75.5014 1.08553C74.0934 0.714589 72.6228 0.425085 71.1033 0.271443C70.723 0.240361 70.3401 0.209822 69.9562 0.178334C69.5825 0.16354 69.2068 0.149289 68.8305 0.134494L68.5754 0.124858L68.4476 0.119293L68.2932 0.121329L67.6643 0.133001C67.2426 0.141688 66.8112 0.149289 66.4236 0.183356C63.227 0.350842 59.9296 1.15122 56.7636 2.53183C55.1814 3.22648 53.6293 4.06554 52.1513 5.06706C50.679 6.07361 49.2742 7.22714 47.9706 8.51967C45.3705 11.1099 43.1799 14.2698 41.6703 17.8314C40.156 21.3849 39.3329 25.3378 39.3268 29.3258L39.3238 29.6337C39.3232 29.7371 39.3207 29.8276 39.3268 29.9762L39.3544 30.7853L39.3713 31.1894L39.3973 31.5583L39.452 32.2977C39.5426 33.2778 39.6739 34.2527 39.8447 35.2109C40.1857 37.1289 40.6585 38.9994 41.2454 40.809C41.8343 42.6155 42.523 44.3655 43.2765 46.0656C44.0367 47.7637 44.8669 49.409 45.7421 51.0134C46.6142 52.6195 47.5483 54.173 48.5094 55.695C49.4709 57.216 50.4623 58.7045 51.4847 60.1563C53.5884 63.1642 55.7922 66.0418 58.0197 68.8325C58.4557 68.2452 58.9081 67.6448 59.4097 66.9808Z" fill="#51DBFC"/>
</g>
<mask id="mask1_1_20" style="mask-type:luminance" maskUnits="userSpaceOnUse" x="46" y="10" width="47" height="26">
<path d="M46.6568 10.5803H92.2005V35.2416H46.6568V10.5803Z" fill="white"/>
</mask>
<g mask="url(#mask1_1_20)">
<path d="M55.7508 21.749C55.7508 21.749 55.7877 21.5948 55.8597 21.2961C55.9256 20.9973 56.0463 20.5546 56.2467 19.9837C56.6627 18.8661 57.3821 17.1762 58.9853 15.4593C60.5563 13.7383 63.0618 12.0763 66.2988 11.2367C69.5211 10.393 73.4304 10.3421 77.4312 11.539C79.4281 12.1348 81.4422 13.0508 83.3486 14.3317C85.2508 15.6125 87.0228 17.2943 88.4706 19.3348C89.925 21.3708 90.9852 23.7936 91.5609 26.3623C92.1539 28.9347 92.1963 31.6414 91.8589 34.2762C91.7817 34.9389 91.6611 35.5902 91.5415 36.2471L91.3277 37.2039C91.2336 37.555 91.134 37.9294 91.0308 38.2613C90.6295 39.5742 90.1309 40.8301 89.5774 42.0411C88.4675 44.4674 87.1321 46.7202 85.6956 48.8789C82.8384 53.2088 79.5982 57.1902 76.3934 61.1253C73.1534 65.0299 69.9239 68.8714 66.8575 72.6833C66.0953 73.6394 65.3423 74.5956 64.6107 75.5522C63.8695 76.5044 63.1436 77.4565 62.4416 78.4116C61.0307 80.3199 59.7163 82.2434 58.4796 84.1563C56.0298 87.9911 54.0075 91.8606 52.7024 95.6939C52.3675 96.6495 52.0893 97.6031 51.8548 98.5512L51.7694 98.9064L51.7269 99.083L51.7054 99.1726L51.6947 99.2163C51.6943 99.2133 51.6809 99.2845 51.6906 99.2224C51.6385 99.4774 51.588 99.7323 51.5362 99.9877C51.4509 100.48 51.3681 100.875 51.3037 101.36C51.0241 103.217 50.9703 105.047 51.0807 106.794C51.2894 110.298 52.2422 113.462 53.5423 116.065C54.8352 118.683 56.4813 120.725 57.9792 122.277C59.4944 123.82 60.8513 124.907 61.8123 125.594C62.2873 125.948 62.6671 126.199 62.9196 126.374C63.1737 126.549 63.3052 126.64 63.3052 126.64C63.3052 126.64 63.1573 126.581 62.871 126.468C62.5864 126.348 62.1498 126.196 61.6104 125.936C60.5246 125.434 58.9244 124.657 57.0713 123.325C55.2273 121.998 53.1052 120.109 51.2458 117.427C50.3134 116.092 49.4684 114.561 48.7398 112.865C48.0334 111.164 47.4608 109.291 47.1034 107.288C46.9118 106.287 46.7973 105.252 46.7272 104.194C46.6526 103.136 46.6388 102.051 46.6873 100.949C46.6995 100.418 46.7568 99.7939 46.808 99.2596C46.8366 99.0026 46.8647 98.7441 46.8938 98.4845C46.9368 98.1934 46.9797 97.9019 47.0233 97.6093C47.1966 96.4913 47.42 95.3657 47.7041 94.2442C48.8365 89.7498 50.7899 85.2982 53.2136 81.0277C54.4144 78.8839 55.7472 76.7842 57.1494 74.7137C57.8478 73.6761 58.5676 72.6497 59.2997 71.6264C60.0373 70.6076 60.7951 69.6001 61.5577 68.5925C64.6 64.5592 67.8658 60.6576 71.0476 56.7643C72.6539 54.8301 74.2396 52.899 75.7698 50.9616C77.2881 49.0188 78.7926 47.0998 80.1469 45.1457C81.5005 43.1937 82.7551 41.2347 83.7571 39.2704C84.2555 38.2882 84.689 37.3056 85.0305 36.3341L85.2539 35.6706L85.4779 34.8911C85.598 34.3801 85.7263 33.8712 85.8126 33.3629C86.5975 29.296 86.0065 25.3252 84.1221 22.1479C82.2648 18.9522 79.2405 16.613 76.0867 15.2781C72.9233 13.9154 69.63 13.5174 66.8013 13.8354C63.9585 14.1464 61.5868 15.2023 59.9173 16.4751C59.0784 17.1096 58.402 17.7843 57.8534 18.4153C57.3095 19.0514 56.9128 19.6524 56.605 20.1516C56.3121 20.6543 56.0866 21.0508 55.9578 21.3312C55.8209 21.6065 55.7508 21.749 55.7508 21.749Z" fill="url(#paint0_linear_1_20)"/>
</g>
<path d="M124.624 45.1669C124.498 44.4254 124.327 43.6805 124.106 42.939C123.878 42.2002 123.598 41.4668 123.27 40.7438C121.961 37.8564 119.823 35.1156 116.96 33.0924C114.117 31.0554 110.633 29.714 107.036 29.2596C105.238 29.0173 103.416 28.9833 101.613 29.108C99.8057 29.2265 98.0226 29.5247 96.2757 29.9435C94.5284 30.3598 92.8189 30.9094 91.1575 31.5612C90.7393 31.721 90.3307 31.893 89.9167 32.064C89.5035 32.2446 89.1109 32.407 88.6769 32.6115L88.0501 32.9051L87.5135 33.1651L87.3784 33.2297L87.1862 33.328L86.881 33.4863C86.6786 33.5921 86.4694 33.6969 86.2742 33.8053C84.6741 34.6679 83.1665 35.5849 81.7192 36.5435C80.2669 37.5002 78.8584 38.4808 77.4816 39.4854C74.7277 41.497 72.0617 43.569 69.4229 45.6513C69.3845 45.6809 69.3466 45.7108 69.3082 45.7403C71.1615 47.2614 72.9824 48.7462 74.8172 50.2077C75.6464 50.8632 76.6407 51.6433 77.6447 52.402C78.0589 52.7215 78.4469 53.0167 78.8222 53.3016C80.7449 51.714 82.6364 50.1583 84.5089 48.6811C85.7512 47.7001 86.9782 46.7494 88.1989 45.866C89.4208 44.9816 90.6237 44.1527 91.7995 43.4301C91.9478 43.3365 92.0925 43.2556 92.2387 43.168L92.4575 43.0383L92.5122 43.0057C92.5382 42.9899 92.4641 43.0286 92.527 42.9946L92.6563 42.9217L93.1768 42.6286L93.6138 42.3899C93.8853 42.2348 94.2125 42.0689 94.51 41.9096C94.8162 41.7565 95.1199 41.5997 95.4277 41.4552C96.0391 41.1616 96.651 40.8888 97.2639 40.642C97.8764 40.3936 98.4852 40.1586 99.0951 39.9575C101.532 39.1418 103.936 38.7226 106.184 38.7627C108.429 38.8111 110.52 39.3006 112.314 40.2537C113.208 40.729 114.025 41.3117 114.767 41.9671C115.505 42.6266 116.143 43.3797 116.677 44.1877C117.206 44.9984 117.637 45.861 117.958 46.7485C118.277 47.6364 118.478 48.5498 118.566 49.4566C118.742 51.2713 118.485 53.0599 117.85 54.6426C117.229 56.2322 116.269 57.6296 115.151 58.7654C114.047 59.9236 112.792 60.8157 111.583 61.5352C109.143 62.9656 106.894 63.6684 105.37 64.1176C104.601 64.3334 104.002 64.4861 103.596 64.5833C103.189 64.677 102.979 64.7253 102.979 64.7253C102.979 64.7253 103.194 64.7451 103.611 64.7812C104.03 64.8143 104.652 64.8626 105.469 64.8704C106.288 64.8841 107.302 64.8602 108.501 64.7384C109.701 64.6235 111.081 64.3818 112.616 63.939C114.147 63.4872 115.827 62.7962 117.529 61.7036C119.214 60.6019 120.914 59.0651 122.268 57.0037C123.601 54.9438 124.585 52.3735 124.813 49.5366C124.93 48.1224 124.872 46.6502 124.624 45.1669Z" fill="url(#paint1_linear_1_20)"/>
<mask id="mask2_1_20" style="mask-type:luminance" maskUnits="userSpaceOnUse" x="0" y="24" width="70" height="56">
<path d="M0.197189 24.3063H69.2981V79.704H0.197189V24.3063Z" fill="white"/>
</mask>
<g mask="url(#mask2_1_20)">
<path d="M67.4087 59.7102C64.7049 57.6899 62.0475 55.5603 59.4515 53.4545C57.5134 54.9303 55.5692 56.3724 53.6104 57.7571C50.9474 59.6293 48.2614 61.399 45.5463 62.9516C44.1901 63.7307 42.8255 64.4518 41.4595 65.1052C40.0961 65.7632 38.7281 66.3504 37.3652 66.8471C34.644 67.8358 31.9375 68.4744 29.3599 68.6112C28.0687 68.6754 26.7915 68.6271 25.5309 68.4611C24.2703 68.2953 23.0366 67.9976 21.84 67.6043C19.4499 66.8049 17.2267 65.5575 15.3187 63.9765C13.4037 62.402 11.7979 60.4994 10.5833 58.4221C9.97653 57.3841 9.46778 56.3007 9.05732 55.1929C8.84876 54.6402 8.67696 54.079 8.50216 53.5187C8.42851 53.2343 8.35485 52.9518 8.28229 52.6699C8.2081 52.3875 8.16208 52.1005 8.09878 51.817C8.0318 51.5229 7.99749 51.27 7.95407 51.0105L7.88818 50.6213L7.8717 50.5204L7.86 50.3942L7.83699 50.1419L7.79206 49.6375L7.77001 49.3861L7.7583 49.2616C7.75925 49.43 7.75721 49.2768 7.7568 49.3006L7.75422 49.2473C7.74033 48.9613 7.72549 48.6763 7.7112 48.3933C7.68982 47.259 7.71991 46.137 7.8442 45.0384C7.98116 43.9438 8.1938 42.8752 8.47098 41.8411C8.76694 40.8142 9.11042 39.8169 9.51025 38.8613C10.3404 36.9666 11.3854 35.2523 12.5556 33.7602C13.7207 32.2602 15.0186 30.9966 16.3233 29.933C17.633 28.8741 18.9606 28.0284 20.2198 27.3495C22.7504 26.0087 24.9932 25.3425 26.537 24.9864C26.9266 24.904 27.2695 24.8307 27.5666 24.7676C27.8672 24.707 28.1249 24.6719 28.3299 24.6358C28.7419 24.5675 28.9541 24.5329 28.9541 24.5329C28.9541 24.5329 28.7398 24.5085 28.3258 24.4618C28.1182 24.4403 27.8616 24.4037 27.5538 24.3798C27.245 24.3594 26.8851 24.3391 26.4737 24.3202C26.0642 24.3096 25.6087 24.3172 25.101 24.3156C24.8485 24.3289 24.5846 24.3437 24.3091 24.3584C24.0326 24.3742 23.7437 24.3889 23.4472 24.4272C22.2489 24.5294 20.8772 24.7757 19.3625 25.1914C17.8462 25.6051 16.195 26.2224 14.4844 27.1129C13.6256 27.5505 12.7596 28.0686 11.8864 28.6533C11.0291 29.2563 10.1487 29.9106 9.30428 30.6679C8.44593 31.4103 7.61508 32.248 6.81664 33.1654C6.01859 34.0854 5.27067 35.0986 4.5524 36.1805C3.85919 37.2766 3.19869 38.445 2.63634 39.7018C2.08319 40.9613 1.6006 42.2935 1.20849 43.6919C0.836321 45.0934 0.544932 46.5573 0.391056 48.0703C0.359867 48.4488 0.328678 48.8299 0.297503 49.2121C0.282677 49.5842 0.268356 49.9581 0.253531 50.3327L0.243307 50.5866L0.238201 50.7138L0.240243 50.8675L0.251488 51.4934C0.260174 51.9132 0.268356 52.3427 0.302104 52.7284C0.470289 55.9104 1.27444 59.1921 2.6619 62.3435C3.35921 63.919 4.20221 65.4639 5.20881 66.9346C6.2195 68.4006 7.37889 69.7984 8.6775 71.0966C11.2796 73.6843 14.4542 75.8653 18.0318 77.3675C21.6017 78.8753 25.5728 79.6945 29.5798 79.7006L29.8885 79.7032C29.9924 79.7041 30.0839 79.7067 30.2331 79.7006L31.0454 79.6727L31.4514 79.6564L31.822 79.6303L32.5649 79.5759C33.55 79.4859 34.5289 79.3551 35.4916 79.1851C37.4189 78.8457 39.2975 78.375 41.1155 77.7908C42.9309 77.2041 44.6885 76.5186 46.3964 75.769C48.1024 75.0118 49.7552 74.1855 51.3671 73.3148C52.981 72.4466 54.5413 71.5165 56.0708 70.5603C57.5984 69.6031 59.0941 68.6164 60.5521 67.5986C63.574 65.5046 66.4656 63.3108 69.269 61.0932C68.6791 60.6597 68.0758 60.2094 67.4087 59.7102Z" fill="url(#paint2_linear_1_20)"/>
</g>
<path d="M21.9662 63.3524C21.9662 63.3524 21.8118 63.3157 21.5112 63.2439C21.2111 63.1784 20.7669 63.0583 20.1928 62.8587C19.0706 62.4445 17.3729 61.728 15.6475 60.1327C13.9191 58.569 12.2489 56.075 11.4058 52.8529C10.5578 49.6454 10.5066 45.7536 11.7096 41.7716C12.3077 39.7841 13.2279 37.7791 14.5152 35.8815C15.8018 33.988 17.4915 32.2242 19.5415 30.7831C21.5863 29.3354 24.0203 28.28 26.6015 27.707C29.1851 27.1167 31.9049 27.0745 34.5515 27.4103C35.2171 27.4871 35.8719 27.6072 36.5315 27.7259L37.4925 27.9391C37.8452 28.0327 38.2221 28.132 38.5549 28.2342C39.8738 28.6341 41.1355 29.1298 42.3527 29.6814C44.7897 30.7862 47.0534 32.1154 49.2216 33.5453C53.5716 36.3894 57.5718 39.6141 61.5251 42.8046C65.4472 46.0299 69.3065 49.2439 73.1364 52.2967C74.097 53.0548 75.0572 53.805 76.0187 54.5332C76.9752 55.2704 77.9312 55.9936 78.8914 56.6923C80.8085 58.0968 82.7408 59.4045 84.662 60.6359C88.5151 63.0745 92.4019 65.0876 96.2534 66.3863C97.213 66.72 98.171 66.9969 99.124 67.2299L99.4803 67.3154L99.6582 67.3577L99.7476 67.3786L99.7916 67.3897C99.7886 67.3902 99.8606 67.4034 99.7977 67.3932C100.054 67.4457 100.311 67.4961 100.567 67.547C101.061 67.6325 101.458 67.7149 101.945 67.779C103.811 68.0573 105.649 68.1108 107.405 68.0009C110.925 67.7928 114.103 66.8448 116.719 65.5506C119.348 64.2638 121.4 62.6252 122.96 61.1342C124.509 59.6259 125.602 58.2754 126.291 57.3187C126.648 56.8459 126.899 56.4678 127.076 56.2164C127.251 55.963 127.342 55.8327 127.342 55.8327C127.342 55.8327 127.283 55.9793 127.169 56.2648C127.05 56.5483 126.897 56.9829 126.635 57.5191C126.13 58.6005 125.35 60.1932 124.011 62.0379C122.678 63.8734 120.781 65.9857 118.086 67.8365C116.746 68.7647 115.207 69.6058 113.504 70.331C111.795 71.0338 109.914 71.6041 107.901 71.9599C106.895 72.1507 105.855 72.2647 104.792 72.3345C103.73 72.4087 102.64 72.4224 101.533 72.3736C100.999 72.3613 100.372 72.3049 99.8356 72.254C99.5775 72.2251 99.3172 72.1975 99.0565 72.1685C98.7646 72.1257 98.4711 72.083 98.1771 72.0393C97.0546 71.8673 95.9231 71.6448 94.7964 71.3614C90.2813 70.2348 85.8092 68.29 81.519 65.8778C79.3653 64.6825 77.2564 63.3554 75.1763 61.9601C74.1339 61.2649 73.1023 60.5484 72.0741 59.8198C71.0512 59.085 70.0385 58.3308 69.0267 57.5721C64.9743 54.5437 61.0548 51.2927 57.1434 48.1259C55.2007 46.5271 53.2606 44.948 51.3144 43.4255C49.3626 41.9141 47.4348 40.416 45.4717 39.0685C43.5102 37.721 41.5419 36.4723 39.5686 35.4749C38.582 34.9788 37.5947 34.5472 36.6189 34.2073L35.9528 33.9849L35.169 33.762C34.6562 33.6424 34.145 33.5147 33.6338 33.4283C29.5482 32.6476 25.5596 33.2354 22.3675 35.1115C19.1565 36.9603 16.8064 39.9703 15.4655 43.1095C14.097 46.2583 13.6972 49.5365 14.0167 52.3526C14.3286 55.1819 15.3899 57.543 16.6684 59.205C17.3059 60.0401 17.9837 60.7133 18.6172 61.2588C19.2562 61.8004 19.8605 62.1957 20.362 62.5021C20.8671 62.7936 21.2648 63.0181 21.5464 63.1462C21.8236 63.2826 21.9662 63.3524 21.9662 63.3524Z" fill="url(#paint3_linear_1_20)"/>
<path fill-rule="evenodd" clip-rule="evenodd" d="M76.9724 27.2427C74.8488 27.2392 72.8134 26.4243 71.3122 24.9766C69.8112 23.529 68.9671 21.5668 68.9651 19.5203C66.9498 19.5396 64.99 20.1578 63.3531 21.2906C61.7162 22.4235 60.4821 24.0155 59.8194 25.8496C59.1566 27.6837 59.0976 29.6702 59.6501 31.5378C60.2029 33.4054 61.3403 35.063 62.9072 36.2843C64.474 37.5057 66.394 38.231 68.4047 38.3614C70.4155 38.4918 72.4189 38.0209 74.1414 37.013C75.8641 36.0049 77.2218 34.5092 78.0291 32.7297C78.8365 30.9503 79.0542 28.9742 78.6525 27.0712C78.1002 27.1846 77.5371 27.2422 76.9724 27.2427Z" fill="#51DBFC"/>
<defs>
<linearGradient id="paint0_linear_1_20" x1="68.9978" y1="5.36409" x2="84.2878" y2="99.76" gradientUnits="userSpaceOnUse">
<stop stop-color="white" stop-opacity="0.979224"/>
<stop offset="0.14972" stop-color="#1394FC"/>
<stop offset="0.237986" stop-color="#1897FC"/>
<stop offset="0.34143" stop-color="#91C0FF"/>
<stop offset="1" stop-color="#4BDFF9" stop-opacity="0"/>
</linearGradient>
<linearGradient id="paint1_linear_1_20" x1="97.0897" y1="29.0373" x2="97.0897" y2="64.8738" gradientUnits="userSpaceOnUse">
<stop stop-color="#016DC0"/>
<stop offset="0.0001" stop-color="white"/>
<stop offset="0.0002" stop-color="#4FE4FD"/>
<stop offset="1" stop-color="#5EA0EF"/>
</linearGradient>
<linearGradient id="paint2_linear_1_20" x1="34.7535" y1="24.3144" x2="34.7535" y2="79.7045" gradientUnits="userSpaceOnUse">
<stop stop-color="white"/>
<stop offset="0.0001" stop-color="#51DDFC"/>
<stop offset="1" stop-color="#5EA0EF"/>
</linearGradient>
<linearGradient id="paint3_linear_1_20" x1="69.0637" y1="27.1997" x2="69.0637" y2="72.4023" gradientUnits="userSpaceOnUse">
<stop stop-color="#0A82E4"/>
<stop offset="0.51875" stop-color="#A0DDFF"/>
<stop offset="0.9999" stop-color="#1394FC"/>
<stop offset="1" stop-color="#0A82E4"/>
</linearGradient>
</defs>
</svg>
